<?xml version="1.0" encoding="UTF-8" standalone="no"?>
<svg width="20px" height="20px" viewBox="0 0 20 20" version="1.1" xmlns="http://www.w3.org/2000/svg" xmlns:xlink="http://www.w3.org/1999/xlink" xmlns:sketch="http://www.bohemiancoding.com/sketch/ns">
    <!-- Generator: Sketch 3.0.4 (8053) - http://www.bohemiancoding.com/sketch -->
    <title>icon</title>
    <desc>Created with Sketch.</desc>
    <defs></defs>
    <g id="Page-1" stroke="none" stroke-width="1" fill="none" fill-rule="evenodd" sketch:type="MSPage">
        <g id="icon" sketch:type="MSArtboardGroup" fill="#00A3DB">
            <g id="Imported-Layers" sketch:type="MSLayerGroup" transform="translate(2.000000, 3.000000)">
                <path d="M0.9945,14.9209884 L1.25956122,14.9209884 C1.49964286,14.8725 1.74354082,14.8201744 1.99802041,14.7601744 C3.41942857,14.4256395 4.83094898,13.9852326 6.16111224,13.375814 C7.00590816,12.9889535 9.49085714,11.8548837 8.79680612,10.5169186 C8.41430612,9.77947674 7.35683673,9.44145349 6.63190816,9.21593023 C6.29104082,9.1097093 5.10381633,8.85104651 5.2615,8.2555814 C5.39854082,7.73930233 6.03916327,7.41697674 6.46815306,7.19511628 C7.25691837,6.78732558 8.07846939,6.45383721 8.91389796,6.15575581 C10.0045,5.76680233 11.6319898,5.27965116 11.6637347,4.785 L9.2542449,0.57 C9.06672449,0.224127907 8.72776531,0.0144767442 8.36608163,0.0144767442 C8.00266327,0.0144767442 7.66509184,0.221686047 7.46803061,0.584476744 L0.106683673,13.4480233 C0.0227244898,13.6128488 -0.0157857143,13.7759302 -0.0157857143,13.9273256 C-0.0157857143,14.470814 0.418755102,14.9171512 0.9945,14.9209884 L0.9945,14.9209884 Z M8.364,1.49406977 L9.83345918,4.05348837 L8.84104082,4.05348837 L8.364,4.88424419 L7.88678571,4.05348837 L6.89419388,4.05348837 L8.364,1.49406977 L8.364,1.49406977 Z" id="Fill-1" sketch:type="MSShapeGroup"></path>
                <path d="M16.5937347,13.4091279 L12.1144082,5.57354651 C11.9619286,6.0777907 10.0043265,6.77093023 9.02613265,7.28982558 C9.02613265,7.28982558 8.3084898,7.56139535 8.33294898,7.98680233 C8.34387755,8.17726744 8.53538776,8.28906977 8.63582653,8.32918605 C9.12119388,8.5219186 9.82669388,8.73959302 10.3058163,8.95186047 C11.0682143,9.28953488 11.6474286,10.0322093 11.8332143,10.8062791 C11.9817041,11.4259884 11.8887245,13.1729651 10.367051,14.9084302 C10.3620204,14.9140116 10.3566429,14.9183721 10.3514388,14.9239535 L15.6660204,14.9253488 L15.7591735,14.9253488 C16.3014388,14.9253488 16.7437857,14.4795349 16.7437857,13.9323837 C16.7437857,13.7576163 16.6938265,13.5788372 16.5937347,13.4091279" id="Fill-2" sketch:type="MSShapeGroup"></path>
            </g>
        </g>
    </g>
</svg>