<?xml version="1.0" encoding="UTF-8" standalone="no"?>
<svg width="330px" height="100px" viewBox="0 0 330 100" version="1.1" xmlns="http://www.w3.org/2000/svg" xmlns:xlink="http://www.w3.org/1999/xlink" xmlns:sketch="http://www.bohemiancoding.com/sketch/ns">
    <!-- Generator: Sketch 3.0.4 (8053) - http://www.bohemiancoding.com/sketch -->
    <title>vicon_industries</title>
    <desc>Created with Sketch.</desc>
    <defs></defs>
    <g id="Page-1" stroke="none" stroke-width="1" fill="none" fill-rule="evenodd" sketch:type="MSPage">
        <g id="vicon_industries" sketch:type="MSArtboardGroup" fill="#002C50">
            <g id="Imported-Layers" sketch:type="MSLayerGroup" transform="translate(76.000000, 27.000000)">
                <path d="M73.2292,35.6677419 L65.4295636,12.9903226 C64.4246727,10.0983871 63.9926182,9.86612903 61.9796,9.86612903 L61.9796,8.61451613 C63.6706,8.65483871 65.3179091,8.65483871 67.0089091,8.69193548 C68.6999091,8.65483871 70.3504545,8.65483871 72.0430727,8.61451613 L72.0430727,9.86612903 C70.9249091,10.0209677 69.0591455,9.86612903 69.0591455,11.1967742 C69.0251636,11.6241935 69.1287273,12.1693548 69.3811636,12.9903226 L75.5593818,31.7532258 L81.5968182,12.9903226 C81.7796727,12.2532258 81.8136545,11.7032258 81.7440727,11.3129032 C81.6405091,10.0209677 79.7650364,10.0209677 78.943,9.86612903 L78.943,8.61451613 C80.2343091,8.65483871 81.5612182,8.65483871 82.8573818,8.69193548 C84.1519273,8.65483871 85.4772182,8.65483871 86.7717636,8.61451613 L86.7717636,9.86612903 C84.6535636,10.4145161 84.4059818,10.6854839 83.7117818,12.9903226 L75.6289636,35.6677419 L73.2292,35.6677419" id="Fill-1" sketch:type="MSShapeGroup"></path>
                <path d="M91.7217818,12.6 C91.7217818,10.0645161 91.0761273,9.9483871 88.2685818,9.9483871 L88.2685818,8.61612903 C89.9595818,8.65483871 91.6473455,8.65483871 93.3367273,8.69032258 C95.0212545,8.65483871 96.7074,8.65483871 98.4048727,8.61612903 L98.4048727,9.9483871 C95.7397273,9.9483871 94.9516727,10.0209677 94.9516727,12.6 L94.9516727,31.7548387 C94.9516727,34.2951613 95.6038,34.416129 98.4048727,34.416129 L98.4048727,35.7435484 C96.7074,35.7016129 95.0212545,35.7016129 93.3367273,35.6677419 C91.6473455,35.7016129 89.9595818,35.7016129 88.2685818,35.7435484 L88.2685818,34.416129 C91.0761273,34.416129 91.7217818,34.2951613 91.7217818,31.7548387 L91.7217818,12.6" id="Fill-2" sketch:type="MSShapeGroup"></path>
                <path d="M121.355545,27.5758065 L121.355545,34.4887097 C119.570691,35.4274194 112.455545,36.0548387 110.737036,36.0548387 C101.042509,36.0548387 97.8142364,31.0516129 97.8142364,21.983871 C97.8142364,12.6016129 101.9228,8.10645161 111.583345,8.10645161 C115.253382,8.10645161 117.806873,8.61612903 121.355545,9.63387097 L121.355545,15.9241935 L119.2066,15.9241935 L119.082,14.7903226 C118.523727,10.4145161 116.528509,9.55483871 111.583345,9.55483871 C104.2012,9.55483871 101.961636,14.8290323 101.961636,21.3209677 C101.961636,28.4322581 103.278836,34.7306452 111.788855,34.7306452 C117.931473,34.7306452 118.567418,33.0467742 119.082,27.5758065 L121.355545,27.5758065" id="Fill-3" sketch:type="MSShapeGroup"></path>
                <path d="M122.708345,22.0645161 C122.708345,12.1693548 125.818491,8.10645161 135.6716,8.10645161 C145.5328,8.10645161 148.639709,12.1693548 148.639709,22.0645161 C148.639709,31.8725806 145.984273,36.0548387 135.6716,36.0548387 C125.852473,36.0548387 122.708345,31.9080645 122.708345,22.0645161 M126.5758,22.0645161 C126.5758,28.6290323 128.061291,34.6870968 135.6716,34.6870968 C143.29,34.6870968 144.775491,28.6290323 144.775491,22.0645161 C144.775491,15.4919355 143.29,9.47419355 135.6716,9.47419355 C128.061291,9.47419355 126.5758,15.4919355 126.5758,22.0645161" id="Fill-4" sketch:type="MSShapeGroup"></path>
                <path d="M150.647873,12.6 C150.647873,10.0645161 149.848491,9.9483871 147.154218,9.9483871 L147.154218,8.61612903 C148.264291,8.65483871 149.3242,8.65483871 150.421327,8.69032258 C151.482855,8.65483871 152.579982,8.65483871 153.646364,8.61612903 L169.868636,30.9741935 L169.868636,12.6 C169.868636,10.0983871 169.182527,9.9483871 166.379836,9.9483871 L166.379836,8.61612903 C167.820018,8.65483871 169.2602,8.65483871 170.700382,8.69032258 C172.140564,8.65483871 173.587218,8.65483871 175.025782,8.61612903 L175.025782,9.9483871 C172.294291,9.9483871 171.766764,10.0983871 171.766764,12.6 L171.766764,35.6677419 L169.294182,35.6677419 L152.546,12.8387097 L152.546,31.7548387 C152.546,34.2580645 153.2224,34.416129 156.033182,34.416129 L156.033182,35.7435484 C154.5574,35.7016129 153.071909,35.7016129 151.599364,35.6677419 C150.123582,35.7016129 148.638091,35.7016129 147.154218,35.7435484 L147.154218,34.416129 C149.965,34.416129 150.647873,34.2580645 150.647873,31.7548387 L150.647873,12.6" id="Fill-5" sketch:type="MSShapeGroup"></path>
                <path d="M35.6954727,-0.224193548 L43.9142182,-0.224193548 L34.3135455,15.8145161 C34.1776182,16.3870968 33.5756545,16.6258065 33.1614,16.6258065 L21.8745818,16.6258065 C21.4619455,16.6258065 20.7014,16.4258065 20.4942727,15.8145161 L10.7512,-0.224193548 L18.7660545,-0.224193548 L25.9524,11.35 C26.3067818,12.033871 27.3278545,12.033871 27.4945273,12.0193548 C27.6304545,12.0032258 28.4071818,12.0322581 28.7890727,11.35 L35.6954727,-0.224193548" id="Fill-6" sketch:type="MSShapeGroup"></path>
                <path d="M35.6954727,-0.224193548 L43.9142182,-0.224193548 L34.3135455,15.8145161 C34.1776182,16.3870968 33.5756545,16.6258065 33.1614,16.6258065 L21.8745818,16.6258065 C21.4619455,16.6258065 20.7014,16.4258065 20.4942727,15.8145161 L10.7512,-0.224193548 L18.7660545,-0.224193548 L25.9524,11.35 C26.3067818,12.033871 27.3278545,12.033871 27.4945273,12.0193548 C27.6304545,12.0032258 28.4071818,12.0322581 28.7890727,11.35 L35.6954727,-0.224193548" id="Fill-7" sketch:type="MSShapeGroup"></path>
                <path d="M3.916,25.6854839 L-0.194181818,18.7096774 L18.7887091,18.7177419 C19.3647818,18.5516129 19.8728909,19.0564516 20.0816364,19.4080645 L25.7258545,28.983871 C25.9329818,29.3306452 26.1336364,30.0774194 25.6983455,30.5596774 L16.3857091,46.8419355 L12.3790909,40.0435484 L19.0201091,28.1612903 C19.4505455,27.5177419 18.9359636,26.65 18.8372545,26.5177419 C18.7595818,26.4112903 18.3987273,25.6790323 17.6025818,25.6967742 L3.916,25.6854839" id="Fill-8" sketch:type="MSShapeGroup"></path>
                <path d="M50.8109091,25.7258065 L54.9178545,18.75 L35.9382,18.7629032 C35.3588909,18.5919355 34.8475455,19.0951613 34.6388,19.4467742 L28.9978182,29.0225806 C28.7906909,29.3741935 28.5932727,30.1177419 29.0220909,30.6032258 L38.3379636,46.883871 L42.3397273,40.083871 L35.7035636,28.2016129 C35.2731273,27.5580645 35.7812364,26.6935484 35.8831818,26.5629032 C35.9689455,26.4516129 36.3265636,25.7209677 37.1194727,25.7403226 L50.8109091,25.7258065" id="Fill-9" sketch:type="MSShapeGroup"></path>
            </g>
        </g>
    </g>
</svg>