<?xml version="1.0" encoding="UTF-8" standalone="no"?>
<svg width="333px" height="175px" viewBox="0 0 333 175" version="1.1" xmlns="http://www.w3.org/2000/svg" xmlns:xlink="http://www.w3.org/1999/xlink" xmlns:sketch="http://www.bohemiancoding.com/sketch/ns">
    <!-- Generator: Sketch 3.0.4 (8053) - http://www.bohemiancoding.com/sketch -->
    <title>logo</title>
    <desc>Created with Sketch.</desc>
    <defs>
        <filter x="-50%" y="-50%" width="200%" height="200%" filterUnits="objectBoundingBox" id="filter-1">
            <feOffset dx="0" dy="1" in="SourceAlpha" result="shadowOffsetInner1"></feOffset>
            <feGaussianBlur stdDeviation="1" in="shadowOffsetInner1" result="shadowBlurInner1"></feGaussianBlur>
            <feComposite in="shadowBlurInner1" in2="SourceAlpha" operator="arithmetic" k2="-1" k3="1" result="shadowInnerInner1"></feComposite>
            <feColorMatrix values="0 0 0 0 1   0 0 0 0 1   0 0 0 0 1  0 0 0 0.7 0" in="shadowInnerInner1" type="matrix" result="shadowMatrixInner1"></feColorMatrix>
            <feMerge>
                <feMergeNode in="SourceGraphic"></feMergeNode>
                <feMergeNode in="shadowMatrixInner1"></feMergeNode>
            </feMerge>
        </filter>
        <rect id="path-2" x="2" y="2" width="329" height="136" rx="8"></rect>
    </defs>
    <g id="Page-1" stroke="none" stroke-width="1" fill="none" fill-rule="evenodd" sketch:type="MSPage">
        <g id="logo" sketch:type="MSArtboardGroup">
            <g id="Rectangle-1" filter="url(#filter-1)">
                <use stroke="#E3EAEC" stroke-width="1" fill="#E3EAEC" sketch:type="MSShapeGroup" xlink:href="#path-2"></use>
                <use stroke="none" fill-opacity="0.330923507" fill="none" xlink:href="#path-2"></use>
            </g>
            <g id="Imported-Layers" sketch:type="MSLayerGroup" transform="translate(37.000000, 36.000000)">
                <path d="M88.2818706,39.2047568 C87.6126364,39.7432432 86.7396434,40.1328649 85.666514,40.3727027 C84.5915734,40.6134595 83.3146853,40.7338378 81.8358497,40.7338378 L68.8595874,40.7338378 C66.2360804,40.7338378 64.198493,40.1255135 62.7477308,38.9079459 C61.0452133,37.5479459 60.1948601,35.5658378 60.1948601,32.9607027 C60.1948601,32.7061622 60.3053427,32.5784324 60.5290245,32.5784324 L63.1661154,32.5784324 C63.416965,32.5784324 63.5428427,32.7061622 63.5428427,32.9607027 C63.5700105,33.8107027 63.7239615,34.5320541 64.0037902,35.1275135 C64.2818077,35.7220541 64.7427552,36.1750811 65.3848217,36.4865946 C65.8303741,36.7126486 66.4171993,36.8973514 67.143486,37.0388649 C67.8679615,37.1803784 68.7192203,37.2511351 69.6963566,37.2511351 L81.709972,37.2511351 C82.6581294,37.2511351 83.4541469,37.1803784 84.0962133,37.0388649 C84.7373741,36.8973514 85.2680524,36.6979459 85.6873427,36.4434054 C86.2442832,36.1043243 86.6355,35.6365946 86.8591818,35.0420541 C87.081958,34.4475135 87.1942517,33.7399459 87.1942517,32.9184324 C87.1942517,31.1908649 86.4254021,30.0164865 84.8913252,29.3925405 C84.2782378,29.1104324 83.4686364,28.911027 82.4634266,28.798 C81.4591224,28.684973 80.2872832,28.628 78.9479091,28.628 L77.9426993,28.628 C77.5795559,28.628 77.1475874,28.6427027 76.6458881,28.6702703 L75.2222937,28.6702703 C75.1661469,28.6702703 75.0964161,28.6776216 75.0131014,28.6923243 C74.9288811,28.7061081 74.8310769,28.7134595 74.7196888,28.7134595 L74.1754266,28.7134595 C73.589507,28.7419459 73.0724126,28.7557297 72.6268601,28.7557297 L71.5383357,28.7557297 C67.9657657,28.7557297 65.3006014,28.3311892 63.5428427,27.4811892 C61.1710909,26.3490811 59.9847622,24.2539459 59.9847622,21.1948649 C59.9847622,16.2951892 62.7060734,13.8462703 68.1477902,13.8462703 L81.3749021,13.8462703 C87.3472972,13.8462703 90.3339476,16.4376216 90.3339476,21.6194054 C90.3339476,21.8463784 90.2361434,21.9594054 90.040535,21.9594054 L87.3201294,21.9594054 C87.0964476,21.9594054 86.9850594,21.8463784 86.9850594,21.6194054 C86.956986,20.7988108 86.803035,20.0838919 86.5241119,19.4737297 C86.2442832,18.8654054 85.7851469,18.4059459 85.1430804,18.0935135 C84.1940175,17.6129189 82.7704231,17.3721622 80.8732028,17.3721622 L68.0635699,17.3721622 C67.1987273,17.3721622 66.4796853,17.442 65.9082552,17.5844324 C65.3368252,17.7259459 64.8831224,17.9106486 64.5471469,18.1367027 C63.7665245,18.6467027 63.3753077,19.6804865 63.3753077,21.2371351 C63.3753077,22.7947027 64.1432517,23.8854595 65.6773287,24.5084865 C66.9605559,25.046973 68.9284126,25.3152973 71.579993,25.3152973 L72.8786154,25.3152973 C73.4636294,25.3152973 74.1618427,25.3015135 74.9705385,25.273027 C75.0547587,25.273027 75.1444126,25.2656757 75.2431224,25.250973 C75.340021,25.2371892 75.4450699,25.2298378 75.5573636,25.2298378 L76.1007203,25.2298378 C76.6033252,25.2022703 77.0497832,25.1875676 77.441,25.1875676 L78.3610839,25.1875676 C80.2592098,25.1875676 81.9046748,25.3015135 83.3011014,25.5275676 C84.6957168,25.7536216 85.8675559,26.0798378 86.8175245,26.5043784 C89.3006643,27.7504324 90.5422343,29.9172432 90.5422343,33.002973 C90.5422343,35.8635676 89.7887797,37.9302162 88.2818706,39.2047568" id="Fill-1" fill="#010201" sketch:type="MSShapeGroup"></path>
                <path d="M125.365962,36.3588649 C124.583528,38.114 123.21608,39.2902162 121.263619,39.8838378 C121.263619,39.9132432 121.249129,39.927027 121.221056,39.927027 C120.439528,40.1815676 119.400811,40.3800541 118.103094,40.5215676 C116.805378,40.6630811 115.235983,40.7338378 113.394003,40.7338378 L109.459196,40.7338378 C107.617217,40.7338378 106.047822,40.6630811 104.750105,40.5215676 C103.451483,40.3800541 102.398276,40.1815676 101.58958,39.927027 C101.560601,39.927027 101.532528,39.9132432 101.50536,39.8838378 C100.501056,39.5732432 99.6642867,39.1192973 98.9932413,38.5256757 C98.324007,37.9302162 97.7806503,37.2079459 97.3613601,36.3588649 C96.9701434,35.5097838 96.6848811,34.419027 96.5037622,33.0884324 C96.3208322,31.7578378 96.2311783,30.1993514 96.2311783,28.4157297 L96.2311783,14.2708108 C96.2311783,13.9887027 96.3425664,13.8462703 96.5662483,13.8462703 L99.2033392,13.8462703 C99.4541888,13.8462703 99.5800664,13.9887027 99.5800664,14.2708108 L99.5800664,28.4157297 C99.5800664,31.3038919 99.8454056,33.3714595 100.375178,34.6175135 C100.877783,35.7781081 101.798773,36.5012973 103.138147,36.7834054 C104.226671,37.0673514 106.333084,37.2079459 109.459196,37.2079459 L113.394003,37.2079459 C116.51921,37.2079459 118.626528,37.0673514 119.714147,36.7834054 C121.054427,36.4718919 121.933759,35.7505405 122.351238,34.6175135 C122.658234,34.0220541 122.861087,33.2097297 122.958892,32.1759459 C123.056696,31.1421622 123.104692,29.8887568 123.104692,28.4157297 L123.104692,14.2708108 C123.104692,13.9887027 123.245059,13.8462703 123.523983,13.8462703 L126.119416,13.8462703 C126.370266,13.8462703 126.496143,13.9887027 126.496143,14.2708108 L126.496143,28.4157297 C126.496143,32.0123784 126.119416,34.6597838 125.365962,36.3588649" id="Fill-2" fill="#010201" sketch:type="MSShapeGroup"></path>
                <path d="M167.7025,40.7338378 C167.45165,40.7338378 167.325773,40.607027 167.325773,40.3515676 L167.325773,16.6921622 L166.531566,16.6921622 L152.884259,40.6483784 C152.829017,40.7062703 152.730308,40.7338378 152.591752,40.7338378 L150.792336,40.7338378 C150.735283,40.7338378 150.680042,40.7200541 150.623895,40.6915676 L137.104276,16.6921622 L136.350822,16.6921622 L136.350822,40.3515676 C136.350822,40.607027 136.224944,40.7338378 135.973189,40.7338378 L133.252783,40.7338378 C133.001028,40.7338378 132.876056,40.607027 132.876056,40.3515676 L132.876056,14.2708108 C132.876056,13.9887027 133.001028,13.8462703 133.252783,13.8462703 L139.28042,13.8462703 C139.36464,13.8462703 139.433465,13.860973 139.489612,13.8885405 L151.754077,35.8497838 L164.396175,13.9317297 C164.452322,13.8747568 164.54922,13.8462703 164.688682,13.8462703 L170.382154,13.8462703 C170.576857,13.8462703 170.675566,13.9887027 170.675566,14.2708108 L170.675566,40.3515676 C170.675566,40.607027 170.576857,40.7338378 170.382154,40.7338378 L167.7025,40.7338378" id="Fill-3" fill="#010201" sketch:type="MSShapeGroup"></path>
                <path d="M212.019573,40.7338378 C211.768724,40.7338378 211.642846,40.607027 211.642846,40.3515676 L211.642846,16.6921622 L210.847734,16.6921622 L197.201332,40.6483784 C197.145185,40.7062703 197.047381,40.7338378 196.90792,40.7338378 L195.108503,40.7338378 C195.052357,40.7338378 194.99621,40.7200541 194.940969,40.6915676 L181.420444,16.6921622 L180.66699,16.6921622 L180.66699,40.3515676 C180.66699,40.607027 180.541112,40.7338378 180.290262,40.7338378 L177.568951,40.7338378 C177.318101,40.7338378 177.192224,40.607027 177.192224,40.3515676 L177.192224,14.2708108 C177.192224,13.9887027 177.318101,13.8462703 177.568951,13.8462703 L183.596587,13.8462703 C183.680808,13.8462703 183.749633,13.860973 183.806685,13.8885405 L196.07115,35.8497838 L208.713248,13.9317297 C208.76849,13.8747568 208.866294,13.8462703 209.005755,13.8462703 L214.698322,13.8462703 C214.89393,13.8462703 214.991734,13.9887027 214.991734,14.2708108 L214.991734,40.3515676 C214.991734,40.607027 214.89393,40.7338378 214.698322,40.7338378 L212.019573,40.7338378" id="Fill-4" fill="#010201" sketch:type="MSShapeGroup"></path>
                <path d="M221.668682,40.7338378 C221.445,40.7338378 221.333612,40.607027 221.333612,40.3515676 L221.333612,14.2708108 C221.333612,13.9887027 221.445,13.8462703 221.668682,13.8462703 L223.719853,13.8462703 C223.914556,13.8462703 224.01236,13.9887027 224.01236,14.2708108 L224.01236,40.3515676 C224.01236,40.607027 223.914556,40.7338378 223.719853,40.7338378 L221.668682,40.7338378" id="Fill-5" fill="#010201" sketch:type="MSShapeGroup"></path>
                <path d="M244.832881,17.3721622 L244.832881,40.3515676 C244.832881,40.607027 244.707909,40.7338378 244.456154,40.7338378 L241.819063,40.7338378 C241.595381,40.7338378 241.484899,40.607027 241.484899,40.3515676 L241.484899,17.3721622 L229.554598,17.3721622 C229.275675,17.3721622 229.136213,17.2306486 229.136213,16.9467027 L229.136213,14.2708108 C229.136213,13.9887027 229.275675,13.8462703 229.554598,13.8462703 L256.805745,13.8462703 C257.084668,13.8462703 257.224129,13.9887027 257.224129,14.2708108 L257.224129,16.9467027 C257.224129,17.2306486 257.084668,17.3721622 256.805745,17.3721622 L244.832881,17.3721622" id="Fill-6" fill="#010201" sketch:type="MSShapeGroup"></path>
                <path d="M218.556154,7.13172973 L222.651252,-0.0652432432 L226.74635,7.13172973 L218.556154,7.13172973" id="Fill-7" fill="#010201" sketch:type="MSShapeGroup"></path>
                <path d="M225.04836,5.25621622 L222.651252,9.4667027 L220.253238,5.25621622 L225.04836,5.25621622" id="Fill-8" fill="#010201" sketch:type="MSShapeGroup"></path>
                <path d="M79.0312238,52.7523784 L74.6852762,52.7523784 L74.6852762,50.3870811 L86.2053427,50.3870811 L86.2053427,52.7523784 L81.815021,52.7523784 L81.815021,65.8671892 L79.0312238,65.8671892 L79.0312238,52.7523784" id="Fill-9" fill="#010201" sketch:type="MSShapeGroup"></path>
                <path d="M86.8646154,50.5938378 C87.9051434,50.4091351 89.4672937,50.2722162 91.0747238,50.2722162 C93.2698846,50.2722162 94.7641154,50.6388649 95.7829091,51.5127568 C96.6196783,52.224 97.096021,53.3037297 97.096021,54.6122703 C97.096021,56.6109189 95.7602692,57.9654054 94.333958,58.4937838 L94.333958,58.5627027 C95.4206713,58.9771351 96.0772273,60.055027 96.4621049,61.5482703 C96.9366364,63.478 97.3441538,65.268973 97.6611119,65.8671892 L94.7867552,65.8671892 C94.5603566,65.4077297 94.1990245,64.1442162 93.7679615,62.2144865 C93.3378042,60.1937838 92.6142343,59.5505405 91.0294441,59.5045946 L89.6266783,59.5045946 L89.6266783,65.8671892 L86.8646154,65.8671892 L86.8646154,50.5938378 L86.8646154,50.5938378 Z M89.6266783,57.437027 L91.2784825,57.437027 C93.1566853,57.437027 94.333958,56.4262162 94.333958,54.8879459 C94.333958,53.1888649 93.1566853,52.4077838 91.3464021,52.4077838 C90.4634476,52.4077838 89.8983566,52.4757838 89.6266783,52.5456216 L89.6266783,57.437027 L89.6266783,57.437027 Z" id="Fill-10" fill="#010201" sketch:type="MSShapeGroup"></path>
                <path d="M101.827752,61.4793514 L100.515545,65.8671892 L97.6402832,65.8671892 L102.530493,50.3870811 L106.084045,50.3870811 L111.040364,65.8671892 L108.052808,65.8671892 L106.671776,61.4793514 L101.827752,61.4793514 L101.827752,61.4793514 Z M106.197245,59.3437838 L104.996427,55.5311892 C104.703014,54.5892973 104.453976,53.5334595 104.227577,52.6375135 L104.182297,52.6375135 C103.955899,53.5334595 103.7295,54.6122703 103.457822,55.5311892 L102.280549,59.3437838 L106.197245,59.3437838 L106.197245,59.3437838 Z" id="Fill-11" fill="#010201" sketch:type="MSShapeGroup"></path>
                <path d="M112.039234,50.3870811 L120.843423,50.3870811 L120.843423,52.7055135 L114.823031,52.7055135 L114.823031,56.9775676 L120.435906,56.9775676 L120.435906,59.2978378 L114.823031,59.2978378 L114.823031,65.8671892 L112.039234,65.8671892 L112.039234,50.3870811" id="Fill-12" fill="#010201" sketch:type="MSShapeGroup"></path>
                <path d="M122.430024,50.3870811 L131.235119,50.3870811 L131.235119,52.7055135 L125.214727,52.7055135 L125.214727,56.9775676 L130.827601,56.9775676 L130.827601,59.2978378 L125.214727,59.2978378 L125.214727,65.8671892 L122.430024,65.8671892 L122.430024,50.3870811" id="Fill-13" fill="#010201" sketch:type="MSShapeGroup"></path>
                <path d="M132.82172,50.3870811 L135.605517,50.3870811 L135.605517,65.8671892 L132.82172,65.8671892 L132.82172,50.3870811 Z" id="Fill-14" fill="#010201" sketch:type="MSShapeGroup"></path>
                <path d="M148.598986,65.4077297 C147.94243,65.7523243 146.494385,66.118973 144.660556,66.118973 C139.817437,66.118973 136.874255,63.0185405 136.874255,58.31 C136.874255,53.2118378 140.359888,50.1343784 145.022794,50.1343784 C146.855717,50.1343784 148.168829,50.524 148.73392,50.8235676 L148.123549,53.074 C147.399073,52.7523784 146.40292,52.4757838 145.135993,52.4757838 C142.035238,52.4757838 139.793892,54.4523784 139.793892,58.1730811 C139.793892,61.5721622 141.763559,63.7536757 145.113353,63.7536757 C146.244441,63.7536757 147.421713,63.5239459 148.146189,63.1793514 L148.598986,65.4077297" id="Fill-15" fill="#010201" sketch:type="MSShapeGroup"></path>
                <path d="M153.332528,62.7888108 C154.238122,63.3162703 155.596514,63.7757297 157.022825,63.7757297 C158.810469,63.7757297 159.806622,62.9266486 159.806622,61.6640541 C159.806622,60.4915135 159.036867,59.8032432 157.090745,59.092 C154.57772,58.1730811 152.971196,56.8176757 152.971196,54.5892973 C152.971196,52.0631892 155.054063,50.1343784 158.357671,50.1343784 C160.010381,50.1343784 161.232934,50.5019459 162.024423,50.9145405 L161.346133,53.1888649 C160.801871,52.8902162 159.738703,52.4537297 158.312392,52.4537297 C156.547388,52.4537297 155.777633,53.4185946 155.777633,54.3136216 C155.777633,55.5072973 156.660587,56.0595676 158.697269,56.8636216 C161.346133,57.8735135 162.635699,59.2289189 162.635699,61.4572973 C162.635699,63.9374595 160.780136,66.118973 156.840801,66.118973 C155.234276,66.118973 153.558927,65.6374595 152.722157,65.1311351 L153.332528,62.7888108" id="Fill-16" fill="#010201" sketch:type="MSShapeGroup"></path>
                <path d="M177.554462,57.9654054 C177.554462,63.1563784 174.453706,66.118973 170.242692,66.118973 C165.94293,66.118973 163.226147,62.7888108 163.226147,58.2410811 C163.226147,53.4865946 166.169329,50.1343784 170.469091,50.1343784 C174.928238,50.1343784 177.554462,53.5555135 177.554462,57.9654054 L177.554462,57.9654054 Z M166.169329,58.1951351 C166.169329,61.3424324 167.731479,63.8685405 170.402077,63.8685405 C173.095315,63.8685405 174.612185,61.3194595 174.612185,58.0802703 C174.612185,55.1636216 173.185874,52.3848108 170.402077,52.3848108 C167.640014,52.3848108 166.169329,55.0028108 166.169329,58.1951351 L166.169329,58.1951351 Z" id="Fill-17" fill="#010201" sketch:type="MSShapeGroup"></path>
                <path d="M178.82501,50.3870811 L181.608808,50.3870811 L181.608808,63.500973 L187.879143,63.500973 L187.879143,65.8671892 L178.82501,65.8671892 L178.82501,50.3870811" id="Fill-18" fill="#010201" sketch:type="MSShapeGroup"></path>
                <path d="M190.869416,50.3870811 L190.869416,59.4127027 C190.869416,62.4442162 192.113703,63.8446486 193.992811,63.8446486 C196.006853,63.8446486 197.206766,62.4442162 197.206766,59.4127027 L197.206766,50.3870811 L199.990563,50.3870811 L199.990563,59.2289189 C199.990563,64.0054595 197.568098,66.118973 193.901346,66.118973 C190.371339,66.118973 188.084713,64.1203243 188.084713,59.2518919 L188.084713,50.3870811 L190.869416,50.3870811" id="Fill-19" fill="#010201" sketch:type="MSShapeGroup"></path>
                <path d="M204.973143,52.7523784 L200.627196,52.7523784 L200.627196,50.3870811 L212.148168,50.3870811 L212.148168,52.7523784 L207.756941,52.7523784 L207.756941,65.8671892 L204.973143,65.8671892 L204.973143,52.7523784" id="Fill-20" fill="#010201" sketch:type="MSShapeGroup"></path>
                <path d="M212.806535,50.3870811 L215.590332,50.3870811 L215.590332,65.8671892 L212.806535,65.8671892 L212.806535,50.3870811 Z" id="Fill-21" fill="#010201" sketch:type="MSShapeGroup"></path>
                <path d="M231.186479,57.9654054 C231.186479,63.1563784 228.085724,66.118973 223.875615,66.118973 C219.575853,66.118973 216.85907,62.7888108 216.85907,58.2410811 C216.85907,53.4865946 219.802252,50.1343784 224.102014,50.1343784 C228.561161,50.1343784 231.186479,53.5555135 231.186479,57.9654054 L231.186479,57.9654054 Z M219.802252,58.1951351 C219.802252,61.3424324 221.363497,63.8685405 224.035,63.8685405 C226.727332,63.8685405 228.244203,61.3194595 228.244203,58.0802703 C228.244203,55.1636216 226.818797,52.3848108 224.035,52.3848108 C221.272937,52.3848108 219.802252,55.0028108 219.802252,58.1951351 L219.802252,58.1951351 Z" id="Fill-22" fill="#010201" sketch:type="MSShapeGroup"></path>
                <path d="M232.457028,65.8671892 L232.457028,50.3870811 L235.626608,50.3870811 L239.565038,57.0244324 C240.582927,58.7474054 241.465881,60.5383784 242.167717,62.2144865 L242.212997,62.2144865 C242.031878,60.1469189 241.964864,58.1491892 241.964864,55.7838919 L241.964864,50.3870811 L244.543997,50.3870811 L244.543997,65.8671892 L241.66964,65.8671892 L237.68593,59.0451351 C236.713322,57.369027 235.694528,55.4622703 234.947413,53.7163243 L234.879493,53.7392973 C234.992692,55.737027 235.015332,57.7816216 235.015332,60.3316216 L235.015332,65.8671892 L232.457028,65.8671892" id="Fill-23" fill="#010201" sketch:type="MSShapeGroup"></path>
                <path d="M246.561661,62.7888108 C247.467255,63.3162703 248.825647,63.7757297 250.251052,63.7757297 C252.038696,63.7757297 253.03485,62.9266486 253.03485,61.6640541 C253.03485,60.4915135 252.265094,59.8032432 250.318972,59.092 C247.806853,58.1730811 246.199423,56.8176757 246.199423,54.5892973 C246.199423,52.0631892 248.28229,50.1343784 251.585899,50.1343784 C253.239514,50.1343784 254.461161,50.5019459 255.25265,50.9145405 L254.57436,53.1888649 C254.031003,52.8902162 252.96693,52.4537297 251.541524,52.4537297 C249.776521,52.4537297 249.00586,53.4185946 249.00586,54.3136216 C249.00586,55.5072973 249.88972,56.0595676 251.925497,56.8636216 C254.57436,57.8735135 255.863927,59.2289189 255.863927,61.4572973 C255.863927,63.9374595 254.008364,66.118973 250.069934,66.118973 C248.462503,66.118973 246.788059,65.6374595 245.950385,65.1311351 L246.561661,62.7888108" id="Fill-24" fill="#010201" sketch:type="MSShapeGroup"></path>
                <path d="M3.95291958,66.6298919 L5.04416084,66.6298919 C6.03488112,66.4277297 7.03918531,66.2108649 8.08876923,65.96 C13.9461538,64.5696757 19.7636923,62.7364324 25.2461608,60.2038919 C28.7281713,58.5939459 38.9686329,53.8771351 36.1087657,48.3121622 C34.5330315,45.2448108 30.1744056,43.8397838 27.1868497,42.9006486 C25.7813671,42.4595676 20.8884406,41.3835135 21.5386573,38.9079459 C22.1037483,36.7595135 24.7435559,35.4188108 26.5112762,34.4962162 C29.7623601,32.798973 33.1492832,31.4123243 36.5914476,30.1736216 C41.0859126,28.5554054 47.7927448,26.5291892 47.9249615,24.4726486 L37.9942133,6.94151351 C37.2208357,5.50248649 35.8244091,4.63043243 34.3328951,4.63043243 C32.8359476,4.63043243 31.4449545,5.4932973 30.6326364,7.00124324 L0.294318182,60.5025405 C-0.0516188811,61.188973 -0.210097902,61.8662162 -0.210097902,62.4975135 C-0.210097902,64.7571351 1.58026224,66.6142703 3.95291958,66.6298919 L3.95291958,66.6298919 Z M34.3238392,10.7835135 L40.3822657,21.4282703 L36.2907902,21.4282703 L34.3238392,24.8843243 L32.3586993,21.4282703 L28.2681294,21.4282703 L34.3238392,10.7835135 L34.3238392,10.7835135 Z" id="Fill-25" fill="#00A3DB" sketch:type="MSShapeGroup"></path>
                <path d="M68.2428776,60.3408108 L49.7814301,27.7513514 C49.1529476,29.8492432 41.0859126,32.7328108 37.0542063,34.8895135 C37.0542063,34.8895135 34.0956294,36.0188649 34.1970559,37.7896216 C34.2423357,38.5798919 35.032014,39.0457838 35.4458706,39.213027 C37.4454231,40.0152432 40.3523811,40.9203784 42.3274825,41.8025405 C45.4698951,43.2066486 47.857042,46.2960541 48.6222692,49.5159459 C49.234451,52.0935135 48.8513846,59.3594054 42.5801434,66.5756757 C42.5593147,66.6004865 42.538486,66.6188649 42.5149406,66.6418378 L64.419458,66.6482703 L64.8034301,66.6482703 C67.0375315,66.6482703 68.860493,64.7938919 68.860493,62.5168108 C68.860493,61.7899459 68.6549231,61.0483784 68.2428776,60.3408108" id="Fill-26" fill="#00A3DB" sketch:type="MSShapeGroup"></path>
            </g>
        </g>
    </g>
</svg>