<?xml version="1.0" standalone="no"?>
<!DOCTYPE svg PUBLIC "-//W3C//DTD SVG 1.1//EN" "http://www.w3.org/Graphics/SVG/1.1/DTD/svg11.dtd">
<svg width="100%" height="100%" viewBox="0 0 330 100" version="1.1" xmlns="http://www.w3.org/2000/svg" xmlns:xlink="http://www.w3.org/1999/xlink" xml:space="preserve" style="fill-rule:evenodd;clip-rule:evenodd;stroke-linejoin:round;stroke-miterlimit:1.41421;">
    <g id="Imported-Layers">
        <path id="Fill-1" d="M125.494,81.8367C125.494,84.542 123.301,86.7347 120.595,86.7347L105.899,86.7347C103.193,86.7347 101,84.542 101,81.8367L101,14.898C101,12.1927 103.193,10 105.899,10L120.595,10C123.301,10 125.494,12.1927 125.494,14.898L125.494,81.8367Z" style="fill:none;stroke-width:2px;stroke:white;"/>
        <path id="Fill-3" d="M136.847,16.7233L139.249,32.8571L134.96,32.8571L134.736,29.9576L133.234,29.9576L132.982,32.8571L128.644,32.8571L130.784,16.7233L136.847,16.7233ZM134.625,27.0971C134.414,25.2702 134.2,23.0122 133.986,20.3216C133.559,23.4106 133.291,25.6702 133.18,27.0971L134.625,27.0971Z" style="fill:white;"/>
        <path id="Fill-4" d="M156.991,16.7233L156.991,32.8571L153.323,32.8571L153.318,21.9657L151.857,32.8571L149.257,32.8571L147.716,22.2139L147.711,32.8571L144.044,32.8571L144.044,16.7233L149.473,16.7233C149.635,17.6931 149.801,18.8376 149.971,20.1535L150.569,24.2563L151.53,16.7233L156.991,16.7233" style="fill:white;"/>
        <path id="Fill-5" d="M162.755,16.7233L169.752,16.7233L169.752,19.9527L166.952,19.9527L166.952,23.0122L169.572,23.0122L169.572,26.0816L166.952,26.0816L166.952,29.6278L170.031,29.6278L170.031,32.8571L162.755,32.8571L162.755,16.7233" style="fill:white;"/>
        <path id="Fill-6" d="M175.32,16.7233L178.291,16.7233C180.27,16.7233 181.61,16.8 182.311,16.9535C183.013,17.1069 183.583,17.4955 184.025,18.1241C184.466,18.751 184.688,19.7535 184.688,21.1282C184.688,22.3837 184.532,23.2278 184.22,23.6588C183.908,24.0914 183.292,24.351 182.376,24.4376C183.207,24.6433 183.764,24.9192 184.05,25.2637C184.336,25.6098 184.514,25.9265 184.584,26.2155C184.652,26.5045 184.688,27.2996 184.688,28.6024L184.688,32.8571L180.791,32.8571L180.791,27.4955C180.791,26.6335 180.722,26.098 180.586,25.8906C180.451,25.6849 180.093,25.582 179.515,25.582L179.515,32.8571L175.32,32.8571L175.32,16.7233ZM179.515,19.4841L179.515,23.071C179.987,23.071 180.317,23.0073 180.506,22.8767C180.698,22.7478 180.791,22.3282 180.791,21.6163L180.791,20.7298C180.791,20.2188 180.701,19.8824 180.516,19.7241C180.335,19.5641 180,19.4841 179.515,19.4841Z" style="fill:white;"/>
        <path id="Fill-7" d="M197.649,16.7233L200.048,32.8571L195.759,32.8571L195.536,29.9576L194.035,29.9576L193.78,32.8571L189.443,32.8571L191.584,16.7233L197.649,16.7233ZM195.425,27.0971C195.212,25.2702 194.999,23.0122 194.786,20.3216C194.358,23.4106 194.091,25.6702 193.98,27.0971L195.425,27.0971Z" style="fill:white;"/>
        <path id="Fill-8" d="M139.186,50.6596C139.186,52.2808 139.143,53.4302 139.07,54.1029C138.995,54.7771 138.755,55.3943 138.353,55.9527C137.948,56.5094 137.406,56.9388 136.723,57.2376C136.037,57.5363 135.241,57.6849 134.331,57.6849C133.467,57.6849 132.692,57.5445 132.002,57.262C131.315,56.9796 130.763,56.5567 130.343,55.9918C129.924,55.4269 129.676,54.8131 129.596,54.1486C129.516,53.4841 129.476,52.3216 129.476,50.6596L129.476,47.9004C129.476,46.2792 129.514,45.1314 129.591,44.4571C129.667,43.7829 129.906,43.1673 130.309,42.609C130.711,42.0506 131.253,41.6229 131.939,41.3224C132.621,41.0237 133.42,40.8751 134.331,40.8751C135.192,40.8751 135.97,41.0171 136.656,41.298C137.345,41.5804 137.897,42.0049 138.319,42.5682C138.735,43.1331 138.985,43.7486 139.063,44.4131C139.143,45.0759 139.186,46.24 139.186,47.9004L139.186,50.6596ZM134.989,45.3584C134.989,44.609 134.947,44.129 134.863,43.9184C134.78,43.7094 134.609,43.6049 134.351,43.6049C134.13,43.6049 133.96,43.6898 133.846,43.8596C133.732,44.0294 133.671,44.529 133.671,45.3584L133.671,52.8931C133.671,53.8302 133.709,54.4065 133.786,54.6269C133.862,54.8457 134.04,54.9551 134.321,54.9551C134.605,54.9551 134.787,54.8294 134.867,54.5763C134.947,54.3233 134.989,53.7224 134.989,52.7722L134.989,45.3584Z" style="fill:white;"/>
        <path id="Fill-9" d="M160.627,41.2131L158.759,57.3469L153.521,57.3469C153.041,54.8686 152.616,52.0473 152.251,48.8865C152.082,50.2416 151.694,53.0629 151.08,57.3469L145.871,57.3469L143.993,41.2131L148.069,41.2131L148.941,52.2841C149.096,49.4678 149.483,45.778 150.102,41.2131L154.458,41.2131C154.515,41.6849 154.669,43.4596 154.917,46.5355L155.381,52.6743C155.618,48.769 156.01,44.9486 156.55,41.2131L160.627,41.2131" style="fill:white;"/>
        <path id="Fill-10" d="M165.538,41.2131L172.533,41.2131L172.533,44.4424L169.733,44.4424L169.733,47.502L172.353,47.502L172.353,50.5714L169.733,50.5714L169.733,54.1176L172.814,54.1176L172.814,57.3469L165.538,57.3469L165.538,41.2131" style="fill:white;"/>
        <path id="Fill-11" d="M178.101,41.2131L181.071,41.2131C183.051,41.2131 184.391,41.2898 185.092,41.4433C185.794,41.5967 186.364,41.9853 186.806,42.6139C187.247,43.2408 187.469,44.2433 187.469,45.618C187.469,46.8735 187.312,47.7176 187.001,48.1486C186.689,48.5812 186.075,48.8408 185.157,48.9273C185.988,49.1331 186.547,49.409 186.831,49.7535C187.116,50.0996 187.296,50.4163 187.365,50.7053C187.435,50.9943 187.469,51.7894 187.469,53.0922L187.469,57.3469L183.571,57.3469L183.571,51.9853C183.571,51.1233 183.503,50.5878 183.367,50.3804C183.232,50.1747 182.876,50.0718 182.296,50.0718L182.296,57.3469L178.101,57.3469L178.101,41.2131ZM182.296,43.9739L182.296,47.5608C182.768,47.5608 183.098,47.4971 183.289,47.3665C183.478,47.2376 183.571,46.818 183.571,46.1061L183.571,45.2196C183.571,44.7086 183.482,44.3722 183.297,44.2139C183.116,44.0539 182.781,43.9739 182.296,43.9739Z" style="fill:white;"/>
        <rect id="Fill-12" x="193.176" y="41.2131" width="4.19495" height="16.1339" style="fill:white;"/>
        <path id="Fill-13" d="M212.507,41.2131L212.507,57.3469L208.829,57.3469L206.646,50.0131L206.646,57.3469L203.139,57.3469L203.139,41.2131L206.646,41.2131L208.999,48.4784L208.999,41.2131L212.507,41.2131" style="fill:white;"/>
        <path id="Fill-14" d="M227.902,47.1527L223.705,47.1527L223.705,45.6882C223.705,44.7641 223.666,44.1878 223.586,43.9543C223.506,43.7208 223.318,43.6049 223.019,43.6049C222.76,43.6049 222.583,43.7061 222.49,43.9053C222.397,44.1045 222.35,44.6155 222.35,45.4384L222.35,53.182C222.35,53.9053 222.397,54.382 222.49,54.6122C222.583,54.8408 222.769,54.9551 223.049,54.9551C223.354,54.9551 223.563,54.8261 223.671,54.5665C223.78,54.3086 223.836,53.8024 223.836,53.0514L223.836,51.138L222.988,51.138L222.988,48.6873L227.902,48.6873L227.902,57.3469L225.266,57.3469L224.878,56.191C224.59,56.689 224.231,57.0629 223.795,57.3127C223.361,57.5608 222.846,57.6849 222.255,57.6849C221.55,57.6849 220.89,57.5151 220.274,57.1722C219.659,56.831 219.192,56.4065 218.872,55.902C218.553,55.3976 218.354,54.8669 218.274,54.3135C218.194,53.7584 218.155,52.9257 218.155,51.8155L218.155,47.0237C218.155,45.4824 218.238,44.3624 218.403,43.6653C218.57,42.9665 219.046,42.3282 219.833,41.7469C220.622,41.1657 221.639,40.8751 222.889,40.8751C224.118,40.8751 225.137,41.1265 225.949,41.6327C226.76,42.1371 227.288,42.7363 227.533,43.4318C227.779,44.1257 227.902,45.1331 227.902,46.4555L227.902,47.1527" style="fill:white;"/>
        <path id="Fill-15" d="M138.534,65.7029L135.476,75.9984L135.476,81.8367L131.588,81.8367L131.588,75.9984L128.639,65.7029L132.494,65.7029C133.097,68.8522 133.435,70.9731 133.511,72.0604C133.745,70.338 134.133,68.2204 134.682,65.7029L138.534,65.7029" style="fill:white;"/>
        <path id="Fill-16" d="M152.226,70.5861L148.328,70.5861L148.328,69.391C148.328,68.8327 148.279,68.4751 148.18,68.3233C148.08,68.1698 147.915,68.0931 147.682,68.0931C147.43,68.0931 147.238,68.1992 147.109,68.4033C146.978,68.609 146.914,68.9224 146.914,69.3404C146.914,69.8792 146.986,70.2841 147.133,70.5584C147.272,70.8294 147.667,71.1576 148.317,71.5429C150.187,72.6531 151.362,73.5624 151.847,74.2727C152.334,74.9845 152.576,76.129 152.576,77.711C152.576,78.8588 152.44,79.7061 152.172,80.2514C151.903,80.7967 151.382,81.2539 150.613,81.6229C149.84,81.9902 148.944,82.1747 147.92,82.1747C146.798,82.1747 145.84,81.9608 145.046,81.5363C144.251,81.1135 143.732,80.5714 143.487,79.9135C143.24,79.2539 143.118,78.3233 143.118,77.1135L143.118,76.0555L147.014,76.0555L147.014,78.0196C147.014,78.622 147.069,79.0122 147.177,79.1869C147.288,79.3584 147.482,79.4449 147.762,79.4449C148.041,79.4449 148.248,79.3339 148.385,79.1167C148.521,78.8963 148.59,78.5714 148.59,78.1371C148.59,77.1869 148.461,76.5682 148.199,76.2759C147.933,75.982 147.28,75.4939 146.237,74.8114C145.193,74.1192 144.502,73.6196 144.164,73.3061C143.825,72.9943 143.544,72.56 143.322,72.0114C143.098,71.4612 142.987,70.7559 142.987,69.8988C142.987,68.6645 143.145,67.7584 143.461,67.1869C143.776,66.6155 144.287,66.1698 144.989,65.8482C145.694,65.5249 146.547,65.3649 147.541,65.3649C148.632,65.3649 149.56,65.5396 150.327,65.8922C151.096,66.2449 151.602,66.6873 151.854,67.2229C152.102,67.7584 152.226,68.6678 152.226,69.9494L152.226,70.5861" style="fill:white;"/>
        <path id="Fill-17" d="M166.423,65.7029L166.423,68.9322L163.931,68.9322L163.931,81.8367L159.736,81.8367L159.736,68.9322L157.254,68.9322L157.254,65.7029L166.423,65.7029" style="fill:white;"/>
        <path id="Fill-18" d="M171.462,65.7029L178.457,65.7029L178.457,68.9322L175.658,68.9322L175.658,71.9902L178.279,71.9902L178.279,75.0612L175.658,75.0612L175.658,78.6073L178.738,78.6073L178.738,81.8367L171.462,81.8367L171.462,65.7029" style="fill:white;"/>
        <path id="Fill-19" d="M196.973,65.7029L196.973,81.8367L193.305,81.8367L193.3,70.9437L191.84,81.8367L189.239,81.8367L187.699,71.1935L187.695,81.8367L184.027,81.8367L184.027,65.7029L189.456,65.7029C189.616,66.6727 189.783,67.8155 189.954,69.1331L190.55,73.2359L191.514,65.7029L196.973,65.7029" style="fill:white;"/>
        <path id="Fill-20" d="M211.63,70.5861L207.732,70.5861L207.732,69.391C207.732,68.8327 207.683,68.4751 207.582,68.3233C207.484,68.1698 207.317,68.0931 207.085,68.0931C206.832,68.0931 206.641,68.1992 206.512,68.4033C206.382,68.609 206.318,68.9224 206.318,69.3404C206.318,69.8792 206.39,70.2841 206.537,70.5584C206.675,70.8294 207.071,71.1576 207.721,71.5429C209.59,72.6531 210.766,73.5624 211.251,74.2727C211.736,74.9845 211.979,76.129 211.979,77.711C211.979,78.8588 211.844,79.7061 211.576,80.2514C211.306,80.7967 210.786,81.2539 210.016,81.6229C209.244,81.9902 208.348,82.1747 207.324,82.1747C206.202,82.1747 205.243,81.9608 204.448,81.5363C203.655,81.1135 203.135,80.5714 202.89,79.9135C202.644,79.2539 202.521,78.3233 202.521,77.1135L202.521,76.0555L206.417,76.0555L206.417,78.0196C206.417,78.622 206.473,79.0122 206.581,79.1869C206.692,79.3584 206.886,79.4449 207.165,79.4449C207.445,79.4449 207.65,79.3339 207.789,79.1167C207.925,78.8963 207.992,78.5714 207.992,78.1371C207.992,77.1869 207.863,76.5682 207.603,76.2759C207.337,75.982 206.684,75.4939 205.64,74.8114C204.597,74.1192 203.904,73.6196 203.566,73.3061C203.227,72.9943 202.948,72.56 202.725,72.0114C202.502,71.4612 202.391,70.7559 202.391,69.8988C202.391,68.6645 202.547,67.7584 202.864,67.1869C203.179,66.6155 203.691,66.1698 204.393,65.8482C205.098,65.5249 205.949,65.3649 206.945,65.3649C208.036,65.3649 208.963,65.5396 209.731,65.8922C210.5,66.2449 211.006,66.6873 211.256,67.2229C211.506,67.7584 211.63,68.6678 211.63,69.9494L211.63,70.5861" style="fill:white;"/>
        <path id="Fill-21" d="M119.442,22.6563L114.743,22.6563L114.743,19.5151C114.743,18.6024 114.692,18.031 114.592,17.8057C114.491,17.5788 114.271,17.4661 113.928,17.4661C113.541,17.4661 113.296,17.6033 113.191,17.8792C113.087,18.1535 113.035,18.7494 113.035,19.6637L113.035,28.0571C113.035,28.9355 113.087,29.5086 113.191,29.7763C113.296,30.0441 113.529,30.178 113.893,30.178C114.245,30.178 114.473,30.0441 114.581,29.7747C114.689,29.5069 114.743,28.8767 114.743,27.8841L114.743,25.6131L119.442,25.6131L119.442,26.3167C119.442,28.1878 119.31,29.5135 119.045,30.2971C118.782,31.0792 118.198,31.7649 117.293,32.3527C116.389,32.942 115.275,33.2359 113.951,33.2359C112.572,33.2359 111.439,32.9861 110.546,32.4882C109.653,31.9902 109.06,31.2996 108.771,30.418C108.48,29.5363 108.335,28.209 108.335,26.4392L108.335,21.1592C108.335,19.858 108.379,18.8816 108.469,18.2302C108.559,17.5788 108.825,16.9518 109.267,16.3494C109.71,15.7469 110.324,15.2735 111.109,14.9273C111.895,14.5812 112.796,14.4082 113.817,14.4082C115.2,14.4082 116.343,14.6759 117.243,15.2098C118.142,15.7453 118.735,16.4131 119.018,17.2114C119.3,18.0098 119.442,19.2522 119.442,20.9388L119.442,22.6563" style="fill:white;"/>
        <path id="Fill-22" d="M113.168,39.2767L113.168,53.7306L116.026,53.7306L116.026,57.3469L108.469,57.3469L108.469,39.2767L113.168,39.2767" style="fill:white;"/>
        <path id="Fill-23" d="M118.426,69.2359L114.062,69.2359L114.062,67.8971C114.062,67.2718 114.006,66.8735 113.893,66.7037C113.782,66.5322 113.596,66.4457 113.337,66.4457C113.053,66.4457 112.839,66.5616 112.695,66.7918C112.55,67.0237 112.476,67.3731 112.476,67.8433C112.476,68.4457 112.558,68.8996 112.721,69.2049C112.876,69.5102 113.319,69.8792 114.049,70.3102C116.14,71.551 117.46,72.5698 118.002,73.3665C118.546,74.1616 118.817,75.4449 118.817,77.2163C118.817,78.5029 118.666,79.4514 118.364,80.062C118.064,80.6727 117.481,81.1837 116.619,81.5967C115.755,82.0098 114.749,82.2155 113.604,82.2155C112.347,82.2155 111.273,81.9788 110.384,81.502C109.494,81.0253 108.911,80.4196 108.637,79.6833C108.361,78.9469 108.224,77.9004 108.224,76.5469L108.224,75.3633L112.589,75.3633L112.589,77.5624C112.589,78.24 112.649,78.6759 112.772,78.8686C112.896,79.0612 113.113,79.1576 113.425,79.1576C113.738,79.1576 113.97,79.0351 114.124,78.7902C114.276,78.5437 114.352,78.1796 114.352,77.6963C114.352,76.6335 114.207,75.9363 113.916,75.6082C113.619,75.2816 112.886,74.7347 111.717,73.969C110.549,73.1951 109.775,72.6318 109.396,72.2824C109.016,71.9347 108.702,71.4498 108.453,70.8327C108.203,70.2155 108.079,69.4253 108.079,68.4669C108.079,67.0824 108.255,66.0702 108.609,65.4302C108.962,64.7902 109.534,64.2906 110.322,63.9298C111.111,63.569 112.063,63.3878 113.18,63.3878C114.4,63.3878 115.44,63.5853 116.3,63.9804C117.159,64.3739 117.729,64.8702 118.008,65.4694C118.286,66.0686 118.426,67.0857 118.426,68.5224L118.426,69.2359" style="fill:white;"/>
    </g>
</svg>
