<?xml version="1.0" encoding="UTF-8" standalone="no"?>
<svg width="330px" height="100px" viewBox="0 0 330 100" version="1.1" xmlns="http://www.w3.org/2000/svg" xmlns:xlink="http://www.w3.org/1999/xlink" xmlns:sketch="http://www.bohemiancoding.com/sketch/ns">
    <!-- Generator: Sketch 3.0.4 (8053) - http://www.bohemiancoding.com/sketch -->
    <title>camera_lowering_systems</title>
    <desc>Created with Sketch.</desc>
    <defs></defs>
    <g id="Page-1" stroke="none" stroke-width="1" fill="none" fill-rule="evenodd" sketch:type="MSPage">
        <g id="camera_lowering_systems" sketch:type="MSArtboardGroup">
            <g id="Imported-Layers" sketch:type="MSLayerGroup" transform="translate(101.000000, 10.000000)">
                <path d="M24.4936709,71.8367347 C24.4936709,74.5420408 22.3006709,76.7346939 19.5949367,76.7346939 L4.89873418,76.7346939 C2.193,76.7346939 0,74.5420408 0,71.8367347 L0,4.89795918 C0,2.19265306 2.193,0 4.89873418,0 L19.5949367,0 C22.3006709,0 24.4936709,2.19265306 24.4936709,4.89795918 L24.4936709,71.8367347 L24.4936709,71.8367347 Z" id="Fill-1" fill="#C0C0C0" sketch:type="MSShapeGroup"></path>
                <path d="M24.4936709,71.8367347 C24.4936709,74.5420408 22.3006709,76.7346939 19.5949367,76.7346939 L4.89873418,76.7346939 C2.193,76.7346939 0,74.5420408 0,71.8367347 L0,4.89795918 C0,2.19265306 2.193,0 4.89873418,0 L19.5949367,0 C22.3006709,0 24.4936709,2.19265306 24.4936709,4.89795918 L24.4936709,71.8367347 L24.4936709,71.8367347 Z" id="Stroke-2" stroke="#808080" sketch:type="MSShapeGroup"></path>
                <path d="M35.8473038,6.72326531 L38.2493165,22.8571429 L33.9596582,22.8571429 L33.7359494,19.957551 L32.2336709,19.957551 L31.9822025,22.8571429 L27.643557,22.8571429 L29.7843038,6.72326531 L35.8473038,6.72326531 L35.8473038,6.72326531 Z M33.6249114,17.0971429 C33.4142658,15.2702041 33.2003544,13.0122449 32.986443,10.3216327 C32.5586203,13.4106122 32.2908228,15.6702041 32.1797848,17.0971429 L33.6249114,17.0971429 L33.6249114,17.0971429 Z" id="Fill-3" fill="#000000" sketch:type="MSShapeGroup"></path>
                <path d="M55.9908987,6.72326531 L55.9908987,22.8571429 L52.3233797,22.8571429 L52.318481,11.9657143 L50.8570253,22.8571429 L48.2574304,22.8571429 L46.715962,12.2138776 L46.7110633,22.8571429 L43.0435443,22.8571429 L43.0435443,6.72326531 L48.4729747,6.72326531 C48.6346329,7.69306122 48.8011899,8.83755102 48.9710127,10.1534694 L49.5686582,14.2563265 L50.530443,6.72326531 L55.9908987,6.72326531" id="Fill-4" fill="#000000" sketch:type="MSShapeGroup"></path>
                <path d="M61.7550759,6.72326531 L68.7521013,6.72326531 L68.7521013,9.95265306 L65.9516582,9.95265306 L65.9516582,13.0122449 L68.572481,13.0122449 L68.572481,16.0816327 L65.9516582,16.0816327 L65.9516582,19.6277551 L69.0313291,19.6277551 L69.0313291,22.8571429 L61.7550759,22.8571429 L61.7550759,6.72326531" id="Fill-5" fill="#000000" sketch:type="MSShapeGroup"></path>
                <path d="M74.3203291,6.72326531 L77.2905949,6.72326531 C79.2696835,6.72326531 80.6103038,6.8 81.3108228,6.95346939 C82.0129747,7.10693878 82.5828608,7.4955102 83.0253797,8.12408163 C83.4662658,8.75102041 83.6883418,9.75346939 83.6883418,11.1281633 C83.6883418,12.3836735 83.5315823,13.2277551 83.2196962,13.6587755 C82.9078101,14.0914286 82.2922025,14.3510204 81.3761392,14.437551 C82.2072911,14.6432653 82.7641139,14.9191837 83.0498734,15.2636735 C83.3356329,15.6097959 83.5136203,15.9265306 83.5838354,16.2155102 C83.6524177,16.5044898 83.6883418,17.2995918 83.6883418,18.602449 L83.6883418,22.8571429 L79.7905823,22.8571429 L79.7905823,17.4955102 C79.7905823,16.6334694 79.722,16.0979592 79.5864684,15.8906122 C79.4509367,15.684898 79.0933291,15.5820408 78.5152785,15.5820408 L78.5152785,22.8571429 L74.3203291,22.8571429 L74.3203291,6.72326531 L74.3203291,6.72326531 Z M78.5152785,9.48408163 L78.5152785,13.0710204 C78.9871899,13.0710204 79.317038,13.0073469 79.5064557,12.8767347 C79.6975063,12.7477551 79.7905823,12.3281633 79.7905823,11.6163265 L79.7905823,10.7297959 C79.7905823,10.2187755 79.7007722,9.88244898 79.5162532,9.72408163 C79.335,9.56408163 79.0002532,9.48408163 78.5152785,9.48408163 L78.5152785,9.48408163 Z" id="Fill-6" fill="#000000" sketch:type="MSShapeGroup"></path>
                <path d="M96.6487595,6.72326531 L99.0475063,22.8571429 L94.759481,22.8571429 L94.5357722,19.957551 L93.0351266,19.957551 L92.7803924,22.8571429 L88.4433797,22.8571429 L90.5841266,6.72326531 L96.6487595,6.72326531 L96.6487595,6.72326531 Z M94.4247342,17.0971429 C94.2124557,15.2702041 93.9985443,13.0122449 93.7862658,10.3216327 C93.358443,13.4106122 93.0906456,15.6702041 92.9796076,17.0971429 L94.4247342,17.0971429 L94.4247342,17.0971429 Z" id="Fill-7" fill="#000000" sketch:type="MSShapeGroup"></path>
                <path d="M38.1856329,40.6595918 C38.1856329,42.2808163 38.1431772,43.4302041 38.0696962,44.1028571 C37.9945823,44.7771429 37.7545443,45.3942857 37.3528481,45.9526531 C36.9478861,46.5093878 36.4057595,46.9387755 35.7232025,47.237551 C35.0373797,47.5363265 34.240519,47.684898 33.3309873,47.684898 C32.4671772,47.684898 31.6915443,47.5444898 31.0024557,47.2620408 C30.315,46.9795918 29.7630759,46.5567347 29.3434177,45.9918367 C28.9237595,45.4269388 28.675557,44.8130612 28.5955443,44.1485714 C28.5155316,43.4840816 28.4763418,42.3216327 28.4763418,40.6595918 L28.4763418,37.9004082 C28.4763418,36.2791837 28.5138987,35.1314286 28.5906456,34.4571429 C28.6673924,33.7828571 28.9057975,33.1673469 29.3091266,32.6089796 C29.7108228,32.0506122 30.2529494,31.6228571 30.9387722,31.322449 C31.6213291,31.0236735 32.4198228,30.875102 33.3309873,30.875102 C34.1915316,30.875102 34.9704304,31.0171429 35.6562532,31.2979592 C36.3453418,31.5804082 36.8972658,32.004898 37.318557,32.5681633 C37.7349494,33.1330612 37.9847848,33.7485714 38.0631646,34.4130612 C38.1431772,35.0759184 38.1856329,36.24 38.1856329,37.9004082 L38.1856329,40.6595918 L38.1856329,40.6595918 Z M33.9890506,35.3583673 C33.9890506,34.6089796 33.9465949,34.1289796 33.8633165,33.9183673 C33.780038,33.7093878 33.6085823,33.604898 33.3505823,33.604898 C33.1301392,33.604898 32.9603165,33.6897959 32.8460127,33.8595918 C32.7317089,34.0293878 32.6712911,34.5289796 32.6712911,35.3583673 L32.6712911,42.8930612 C32.6712911,43.8302041 32.7088481,44.4065306 32.7855949,44.6269388 C32.8623418,44.8457143 33.0403291,44.955102 33.3211899,44.955102 C33.6053165,44.955102 33.7865696,44.8293878 33.8665823,44.5763265 C33.9465949,44.3232653 33.9890506,43.722449 33.9890506,42.7722449 L33.9890506,35.3583673 L33.9890506,35.3583673 Z" id="Fill-8" fill="#000000" sketch:type="MSShapeGroup"></path>
                <path d="M59.6273924,31.2130612 L57.7593418,47.3469388 L52.520962,47.3469388 C52.0408861,44.8685714 51.6163291,42.0473469 51.250557,38.8865306 C51.0823671,40.2416327 50.6937342,43.0628571 50.0797595,47.3469388 L44.8707722,47.3469388 L42.9929241,31.2130612 L47.0686709,31.2130612 L47.9406456,42.2840816 C48.0957722,39.4677551 48.4827722,35.7779592 49.1016456,31.2130612 L53.4582532,31.2130612 C53.5154051,31.684898 53.6688987,33.4595918 53.9171013,36.5355102 L54.3808481,42.6742857 C54.6176203,38.7689796 55.009519,34.9485714 55.5500127,31.2130612 L59.6273924,31.2130612" id="Fill-9" fill="#000000" sketch:type="MSShapeGroup"></path>
                <path d="M64.537557,31.2130612 L71.5329494,31.2130612 L71.5329494,34.442449 L68.7325063,34.442449 L68.7325063,37.5020408 L71.3533291,37.5020408 L71.3533291,40.5714286 L68.7325063,40.5714286 L68.7325063,44.117551 L71.8138101,44.117551 L71.8138101,47.3469388 L64.537557,47.3469388 L64.537557,31.2130612" id="Fill-10" fill="#000000" sketch:type="MSShapeGroup"></path>
                <path d="M77.1011772,31.2130612 L80.071443,31.2130612 C82.0505316,31.2130612 83.3911519,31.2897959 84.0916709,31.4432653 C84.7938228,31.5967347 85.3637089,31.9853061 85.8062278,32.6138776 C86.2471139,33.2408163 86.4691899,34.2432653 86.4691899,35.6179592 C86.4691899,36.8734694 86.3124304,37.717551 86.0005443,38.1485714 C85.6886582,38.5812245 85.0746835,38.8408163 84.1569873,38.9273469 C84.9881392,39.1330612 85.5465949,39.4089796 85.8307215,39.7534694 C86.116481,40.0995918 86.2961013,40.4163265 86.3646835,40.7053061 C86.4348987,40.9942857 86.4691899,41.7893878 86.4691899,43.0922449 L86.4691899,47.3469388 L82.5714304,47.3469388 L82.5714304,41.9853061 C82.5714304,41.1232653 82.5028481,40.5877551 82.3673165,40.3804082 C82.2317848,40.1746939 81.8758101,40.0718367 81.2961266,40.0718367 L81.2961266,47.3469388 L77.1011772,47.3469388 L77.1011772,31.2130612 L77.1011772,31.2130612 Z M81.2961266,33.9738776 L81.2961266,37.5608163 C81.768038,37.5608163 82.0978861,37.4971429 82.2889367,37.3665306 C82.4783544,37.237551 82.5714304,36.8179592 82.5714304,36.1061224 L82.5714304,35.2195918 C82.5714304,34.7085714 82.4816203,34.3722449 82.2971013,34.2138776 C82.1158481,34.0538776 81.7811013,33.9738776 81.2961266,33.9738776 L81.2961266,33.9738776 Z" id="Fill-11" fill="#000000" sketch:type="MSShapeGroup"></path>
                <path d="M92.1762152,31.2130612 L96.3711646,31.2130612 L96.3711646,47.3469388 L92.1762152,47.3469388 L92.1762152,31.2130612 Z" id="Fill-12" fill="#000000" sketch:type="MSShapeGroup"></path>
                <path d="M111.50662,31.2130612 L111.50662,47.3469388 L107.829304,47.3469388 L105.646101,40.0130612 L105.646101,47.3469388 L102.138608,47.3469388 L102.138608,31.2130612 L105.646101,31.2130612 L107.999127,38.4783673 L107.999127,31.2130612 L111.50662,31.2130612" id="Fill-13" fill="#000000" sketch:type="MSShapeGroup"></path>
                <path d="M126.901709,37.1526531 L122.705127,37.1526531 L122.705127,35.6881633 C122.705127,34.7640816 122.665937,34.1877551 122.585924,33.9542857 C122.505911,33.7208163 122.318127,33.604898 122.019304,33.604898 C121.759671,33.604898 121.583316,33.7061224 121.490241,33.9053061 C121.397165,34.1044898 121.34981,34.6155102 121.34981,35.4383673 L121.34981,43.1820408 C121.34981,43.9053061 121.397165,44.3820408 121.490241,44.6122449 C121.583316,44.8408163 121.769468,44.955102 122.048696,44.955102 C122.354051,44.955102 122.563063,44.8261224 122.670835,44.5665306 C122.780241,44.3085714 122.835759,43.802449 122.835759,43.0514286 L122.835759,41.1379592 L121.988278,41.1379592 L121.988278,38.6873469 L126.901709,38.6873469 L126.901709,47.3469388 L124.26619,47.3469388 L123.877557,46.1910204 C123.590165,46.6889796 123.230924,47.0628571 122.794937,47.3126531 C122.360582,47.5608163 121.846215,47.684898 121.255101,47.684898 C120.549684,47.684898 119.889987,47.515102 119.27438,47.1722449 C118.658772,46.8310204 118.191759,46.4065306 117.871709,45.9020408 C117.553291,45.397551 117.354076,44.8669388 117.274063,44.3134694 C117.194051,43.7583673 117.154861,42.9257143 117.154861,41.8155102 L117.154861,37.0236735 C117.154861,35.482449 117.238139,34.362449 117.403063,33.6653061 C117.56962,32.9665306 118.04643,32.3281633 118.833494,31.7469388 C119.62219,31.1657143 120.639494,30.875102 121.888671,30.875102 C123.118253,30.875102 124.13719,31.1265306 124.948747,31.6326531 C125.760304,32.1371429 126.287734,32.7363265 126.532671,33.4318367 C126.779241,34.1257143 126.901709,35.1330612 126.901709,36.4555102 L126.901709,37.1526531" id="Fill-14" fill="#000000" sketch:type="MSShapeGroup"></path>
                <path d="M37.5341013,55.7028571 L34.4756582,65.9983673 L34.4756582,71.8367347 L30.5876962,71.8367347 L30.5876962,65.9983673 L27.6386582,55.7028571 L31.493962,55.7028571 C32.0965063,58.8522449 32.434519,60.9730612 32.5112658,62.0604082 C32.7447722,60.3379592 33.1334051,58.2204082 33.6820633,55.7028571 L37.5341013,55.7028571" id="Fill-15" fill="#000000" sketch:type="MSShapeGroup"></path>
                <path d="M51.2260633,60.5861224 L47.3283038,60.5861224 L47.3283038,59.3910204 C47.3283038,58.8326531 47.2793165,58.475102 47.1797089,58.3232653 C47.0801013,58.1697959 46.9151772,58.0930612 46.6816709,58.0930612 C46.4302025,58.0930612 46.237519,58.1991837 46.108519,58.4032653 C45.9778861,58.6089796 45.9142025,58.922449 45.9142025,59.3404082 C45.9142025,59.8791837 45.9860506,60.2840816 46.1330127,60.5583673 C46.2718101,60.8293878 46.6669747,61.157551 47.3168734,61.5428571 C49.186557,62.6530612 50.3622532,63.562449 50.8472278,64.2726531 C51.3338354,64.9844898 51.5755063,66.1289796 51.5755063,67.7110204 C51.5755063,68.8587755 51.4399747,69.7061224 51.1721772,70.2514286 C50.9027468,70.7967347 50.3818481,71.2538776 49.6127468,71.6228571 C48.8403797,71.9902041 47.9439114,72.1746939 46.9200759,72.1746939 C45.7982658,72.1746939 44.8397468,71.9608163 44.0461519,71.5363265 C43.2509241,71.1134694 42.7316582,70.5714286 42.4867215,69.9134694 C42.2401519,69.2538776 42.1176835,68.3232653 42.1176835,67.1134694 L42.1176835,66.0555102 L46.0138101,66.0555102 L46.0138101,68.0195918 C46.0138101,68.6220408 46.0693291,69.0122449 46.1771013,69.1869388 C46.2881392,69.3583673 46.4824557,69.444898 46.7616835,69.444898 C47.0409114,69.444898 47.2482911,69.3338776 47.3854557,69.1167347 C47.5209873,68.8963265 47.5895696,68.5714286 47.5895696,68.1371429 C47.5895696,67.1869388 47.4605696,66.5681633 47.1993038,66.2759184 C46.9331392,65.9820408 46.2799747,65.4938776 45.2365443,64.8114286 C44.1931139,64.1191837 43.5023924,63.6195918 43.1643797,63.3061224 C42.8247342,62.9942857 42.5438734,62.56 42.3217975,62.0114286 C42.0980886,61.4612245 41.9870506,60.7559184 41.9870506,59.8987755 C41.9870506,58.6644898 42.145443,57.7583673 42.4605949,57.1869388 C42.7757468,56.6155102 43.2868481,56.1697959 43.989,55.8481633 C44.6944177,55.524898 45.5467975,55.364898 46.5412405,55.364898 C47.6320253,55.364898 48.559519,55.5395918 49.3269873,55.8922449 C50.0960886,56.244898 50.6022911,56.6873469 50.8537595,57.2228571 C51.101962,57.7583673 51.2260633,58.6677551 51.2260633,59.9493878 L51.2260633,60.5861224" id="Fill-16" fill="#000000" sketch:type="MSShapeGroup"></path>
                <path d="M65.4225949,55.7028571 L65.4225949,58.9322449 L62.9307722,58.9322449 L62.9307722,71.8367347 L58.7358228,71.8367347 L58.7358228,58.9322449 L56.2537975,58.9322449 L56.2537975,55.7028571 L65.4225949,55.7028571" id="Fill-17" fill="#000000" sketch:type="MSShapeGroup"></path>
                <path d="M70.4617595,55.7028571 L77.4571519,55.7028571 L77.4571519,58.9322449 L74.6583418,58.9322449 L74.6583418,61.9902041 L77.2791646,61.9902041 L77.2791646,65.0612245 L74.6583418,65.0612245 L74.6583418,68.6073469 L77.7380127,68.6073469 L77.7380127,71.8367347 L70.4617595,71.8367347 L70.4617595,55.7028571" id="Fill-18" fill="#000000" sketch:type="MSShapeGroup"></path>
                <path d="M95.9727342,55.7028571 L95.9727342,71.8367347 L92.3052152,71.8367347 L92.3003165,60.9436735 L90.8404937,71.8367347 L88.2392658,71.8367347 L86.6994304,61.1934694 L86.6945316,71.8367347 L83.0270127,71.8367347 L83.0270127,55.7028571 L88.456443,55.7028571 C88.6164684,56.6726531 88.7830253,57.8155102 88.954481,59.1330612 L89.5504937,63.2359184 L90.5139114,55.7028571 L95.9727342,55.7028571" id="Fill-19" fill="#000000" sketch:type="MSShapeGroup"></path>
                <path d="M110.629747,60.5861224 L106.731987,60.5861224 L106.731987,59.3910204 C106.731987,58.8326531 106.683,58.475102 106.581759,58.3232653 C106.483785,58.1697959 106.317228,58.0930612 106.085354,58.0930612 C105.832253,58.0930612 105.641203,58.1991837 105.512203,58.4032653 C105.38157,58.6089796 105.317886,58.922449 105.317886,59.3404082 C105.317886,59.8791837 105.389734,60.2840816 105.536696,60.5583673 C105.675494,60.8293878 106.070658,61.157551 106.720557,61.5428571 C108.590241,62.6530612 109.765937,63.562449 110.250911,64.2726531 C110.735886,64.9844898 110.97919,66.1289796 110.97919,67.7110204 C110.97919,68.8587755 110.843658,69.7061224 110.575861,70.2514286 C110.30643,70.7967347 109.785532,71.2538776 109.01643,71.6228571 C108.244063,71.9902041 107.347595,72.1746939 106.323759,72.1746939 C105.201949,72.1746939 104.24343,71.9608163 103.448203,71.5363265 C102.654608,71.1134694 102.135342,70.5714286 101.890405,69.9134694 C101.643835,69.2538776 101.521367,68.3232653 101.521367,67.1134694 L101.521367,66.0555102 L105.417494,66.0555102 L105.417494,68.0195918 C105.417494,68.6220408 105.473013,69.0122449 105.580785,69.1869388 C105.691823,69.3583673 105.886139,69.444898 106.165367,69.444898 C106.444595,69.444898 106.650342,69.3338776 106.789139,69.1167347 C106.924671,68.8963265 106.99162,68.5714286 106.99162,68.1371429 C106.99162,67.1869388 106.86262,66.5681633 106.602987,66.2759184 C106.336823,65.9820408 105.683658,65.4938776 104.640228,64.8114286 C103.596797,64.1191837 102.904443,63.6195918 102.56643,63.3061224 C102.226785,62.9942857 101.947557,62.56 101.725481,62.0114286 C101.501772,61.4612245 101.390734,60.7559184 101.390734,59.8987755 C101.390734,58.6644898 101.547494,57.7583673 101.864278,57.1869388 C102.17943,56.6155102 102.690532,56.1697959 103.392684,55.8481633 C104.098101,55.524898 104.948848,55.364898 105.944924,55.364898 C107.035709,55.364898 107.963203,55.5395918 108.730671,55.8922449 C109.499772,56.244898 110.005975,56.6873469 110.25581,57.2228571 C110.505646,57.7583673 110.629747,58.6677551 110.629747,59.9493878 L110.629747,60.5861224" id="Fill-20" fill="#000000" sketch:type="MSShapeGroup"></path>
                <path d="M18.4421013,12.6563265 L13.7425823,12.6563265 L13.7425823,9.51510204 C13.7425823,8.60244898 13.691962,8.03102041 13.5923544,7.80571429 C13.4911139,7.57877551 13.2706709,7.46612245 12.9277595,7.46612245 C12.5407595,7.46612245 12.2958228,7.60326531 12.1913165,7.87918367 C12.0868101,8.15346939 12.034557,8.74938776 12.034557,9.66367347 L12.034557,18.0571429 C12.034557,18.9355102 12.0868101,19.5085714 12.1913165,19.7763265 C12.2958228,20.0440816 12.5293291,20.1779592 12.8934684,20.1779592 C13.2445443,20.1779592 13.4731519,20.0440816 13.5809241,19.7746939 C13.6886962,19.5069388 13.7425823,18.8767347 13.7425823,17.8840816 L13.7425823,15.6130612 L18.4421013,15.6130612 L18.4421013,16.3167347 C18.4421013,18.1877551 18.3098354,19.5134694 18.0453038,20.2971429 C17.7824051,21.0791837 17.1978228,21.764898 16.2931899,22.3526531 C15.388557,22.9420408 14.2749114,23.2359184 12.9506203,23.2359184 C11.572443,23.2359184 10.4392025,22.9861224 9.546,22.4881633 C8.65279747,21.9902041 8.06005063,21.2995918 7.77102532,20.4179592 C7.48036709,19.5363265 7.33503797,18.2089796 7.33503797,16.4391837 L7.33503797,11.1591837 C7.33503797,9.85795918 7.37912658,8.88163265 7.46893671,8.23020408 C7.55874684,7.57877551 7.82491139,6.95183673 8.26743038,6.34938776 C8.70994937,5.74693878 9.32392405,5.27346939 10.1093544,4.92734694 C10.8947848,4.58122449 11.7961519,4.40816327 12.8167215,4.40816327 C14.1997975,4.40816327 15.3428354,4.67591837 16.2425696,5.20979592 C17.1423038,5.74530612 17.7350506,6.41306122 18.0175443,7.21142857 C18.300038,8.00979592 18.4421013,9.2522449 18.4421013,10.9387755 L18.4421013,12.6563265" id="Fill-21" fill="#008000" sketch:type="MSShapeGroup"></path>
                <path d="M12.1684557,29.2767347 L12.1684557,43.7306122 L15.0260506,43.7306122 L15.0260506,47.3469388 L7.46893671,47.3469388 L7.46893671,29.2767347 L12.1684557,29.2767347" id="Fill-22" fill="#008000" sketch:type="MSShapeGroup"></path>
                <path d="M17.4264304,59.2359184 L13.0616582,59.2359184 L13.0616582,57.8971429 C13.0616582,57.2718367 13.0061392,56.8734694 12.8934684,56.7036735 C12.7824304,56.5322449 12.5962785,56.4457143 12.3366456,56.4457143 C12.052519,56.4457143 11.8386076,56.5616327 11.6949114,56.7918367 C11.5495823,57.0236735 11.4761013,57.3730612 11.4761013,57.8432653 C11.4761013,58.4457143 11.5577468,58.8995918 11.721038,59.204898 C11.8761646,59.5102041 12.3186835,59.8791837 13.0485949,60.3102041 C15.1403544,61.5510204 16.4597468,62.5697959 17.0018734,63.3665306 C17.5456329,64.1616327 17.8166962,65.444898 17.8166962,67.2163265 C17.8166962,68.5028571 17.6664684,69.4514286 17.3643797,70.0620408 C17.0639241,70.6726531 16.4809747,71.1836735 15.6187975,71.5967347 C14.7549873,72.0097959 13.7491139,72.2155102 12.604443,72.2155102 C11.3471013,72.2155102 10.2726456,71.9787755 9.38434177,71.5020408 C8.49440506,71.0253061 7.9114557,70.4195918 7.63712658,69.6832653 C7.36116456,68.9469388 7.224,67.9004082 7.224,66.5469388 L7.224,65.3632653 L11.5887722,65.3632653 L11.5887722,67.562449 C11.5887722,68.24 11.6491899,68.6759184 11.7716582,68.8685714 C11.8957595,69.0612245 12.1129367,69.157551 12.4248228,69.157551 C12.7383418,69.157551 12.9702152,69.035102 13.1237089,68.7902041 C13.2755696,68.5436735 13.3523165,68.1795918 13.3523165,67.6963265 C13.3523165,66.6334694 13.2069873,65.9363265 12.9163291,65.6081633 C12.6191392,65.2816327 11.885962,64.7346939 10.7167975,63.9689796 C9.54926582,63.195102 8.77526582,62.6318367 8.39643038,62.282449 C8.01596203,61.9346939 7.70244304,61.4497959 7.45260759,60.8326531 C7.20277215,60.2155102 7.07867089,59.4253061 7.07867089,58.4669388 C7.07867089,57.082449 7.25502532,56.0702041 7.60936709,55.4302041 C7.96207595,54.7902041 8.53359494,54.2906122 9.32229114,53.9297959 C10.1109873,53.5689796 11.0629747,53.3877551 12.1798861,53.3877551 C13.3996709,53.3877551 14.4398354,53.5853061 15.3003797,53.9804082 C16.1592911,54.3738776 16.7291772,54.8702041 17.0084051,55.4693878 C17.286,56.0685714 17.4264304,57.0857143 17.4264304,58.522449 L17.4264304,59.2359184" id="Fill-23" fill="#008000" sketch:type="MSShapeGroup"></path>
            </g>
        </g>
    </g>
</svg>