<?xml version="1.0" encoding="UTF-8" standalone="no"?>
<svg width="330px" height="100px" viewBox="0 0 330 100" version="1.1" xmlns="http://www.w3.org/2000/svg" xmlns:xlink="http://www.w3.org/1999/xlink" xmlns:sketch="http://www.bohemiancoding.com/sketch/ns">
    <!-- Generator: Sketch 3.3.2 (12043) - http://www.bohemiancoding.com/sketch -->
    <title>impath_networks</title>
    <desc>Created with Sketch.</desc>
    <defs></defs>
    <g id="Page-1" stroke="none" stroke-width="1" fill="none" fill-rule="evenodd" sketch:type="MSPage">
        <g id="impath_networks" sketch:type="MSArtboardGroup">
            <g id="networks-copy-+-impath" sketch:type="MSLayerGroup" transform="translate(101.000000, 20.000000)">
                <path d="M12.1683582,8.5848761 L5.12149254,8.5848761 L5.12149254,27.3330136 L12.1683582,27.3330136 L12.1683582,8.5848761 Z M8.70268657,0.230983213 C6.73880597,0.230983213 5.16,1.7708713 5.16,3.65723421 C5.16,5.58209432 6.62328358,6.96799361 8.6641791,6.96799361 C10.7050746,6.96799361 12.1683582,5.58209432 12.1683582,3.65723421 C12.1683582,1.80936851 10.5895522,0.230983213 8.70268657,0.230983213 L8.70268657,0.230983213 Z M41.4340299,27.3330136 L41.4340299,16.5922942 C41.4340299,14.3209592 41.0489552,12.7040767 40.2402985,11.4336691 C39.0465672,9.50880895 36.620597,8.19990408 34.2331343,8.19990408 C32.2692537,8.19990408 30.4979104,9.04684253 28.6110448,10.8177138 C26.878209,9.00834532 25.2223881,8.19990408 23.1429851,8.19990408 C18.9456716,8.19990408 15.7110448,11.5106635 15.7110448,15.7838529 L15.7110448,27.3330136 L22.7579104,27.3330136 L22.7579104,17.2467466 C22.7579104,15.7453557 23.1044776,15.1294005 23.9131343,15.1294005 C24.798806,15.1294005 25.0683582,15.6683613 25.0683582,17.2082494 L25.0683582,27.3330136 L32.1152239,27.3330136 L32.1152239,17.2467466 C32.1152239,15.7453557 32.461791,15.1294005 33.2704478,15.1294005 C34.1176119,15.1294005 34.3871642,15.6683613 34.3871642,17.2082494 L34.3871642,27.3330136 L41.4340299,27.3330136 Z M51.6770149,34.26251 L51.6770149,18.9021263 C51.6770149,16.5152998 52.6397015,15.1294005 54.3725373,15.1294005 C55.9128358,15.1294005 57.1450746,16.3228137 57.1450746,17.7857074 C57.1450746,19.2870983 55.9513433,20.5190088 54.4880597,20.5190088 C53.8719403,20.5190088 53.4098507,20.36502 52.7552239,19.8645564 L52.7552239,27.602494 C53.7179104,27.6794884 54.1414925,27.7179856 54.6035821,27.7179856 C59.8791045,27.7179856 64.2689552,23.2523102 64.2689552,17.9396962 C64.2689552,12.5500879 59.9176119,8.19990408 54.4495522,8.19990408 C51.6,8.19990408 48.8274627,9.39331735 47.0561194,11.3951719 C45.5158209,13.127546 44.6301493,15.7838529 44.6301493,18.6326459 L44.6301493,34.26251 L51.6770149,34.26251 Z M77.1689552,20.2880256 C76.5913433,20.6345004 76.0907463,20.7884892 75.4746269,20.7884892 C73.9728358,20.7884892 72.8561194,19.6720703 72.8561194,18.2091767 C72.8561194,16.6692886 74.0883582,15.3988809 75.5516418,15.3988809 C77.2074627,15.3988809 78.2471642,16.6307914 78.2471642,18.6711431 L78.2471642,27.3330136 L85.2940299,27.3330136 L85.2940299,18.1321823 C85.2940299,15.9763389 84.9089552,14.2439648 84.1002985,12.8195683 C82.5214925,9.93227818 79.3253731,8.19990408 75.6286567,8.19990408 C70.0450746,8.19990408 65.7322388,12.4345963 65.7322388,17.9781934 C65.7322388,23.5217906 69.9680597,27.7179856 75.5901493,27.7179856 C76.1677612,27.7179856 76.4758209,27.6794884 77.1689552,27.5639968 L77.1689552,20.2880256 Z M94.0737313,1.6553797 L87.0268657,1.6553797 L87.0268657,17.0927578 C87.0268657,19.4025899 87.4119403,21.2889528 88.220597,22.7518465 C89.799403,25.7161311 93.0725373,27.602494 96.538209,27.602494 L97.3468657,27.602494 L97.3468657,20.2110312 C94.9208955,20.2110312 93.958209,19.0561151 94.0737313,16.2843165 L97.2313433,16.2843165 L97.2313433,8.85435651 L94.0737313,8.85435651 L94.0737313,1.6553797 Z M106.627164,1.6553797 L99.5802985,1.6553797 L99.5802985,27.3330136 L106.627164,27.3330136 L106.627164,17.131255 C106.627164,16.0148361 107.089254,15.3988809 107.859403,15.3988809 C108.244478,15.3988809 108.66806,15.6298641 108.860597,15.9763389 C109.014627,16.2843165 109.014627,16.4383054 109.014627,17.4007354 L109.014627,27.3330136 L116.061493,27.3330136 L116.061493,15.4373781 C116.061493,13.8589928 115.753433,12.2421103 115.175821,11.2026859 C114.251642,9.35482014 112.287761,8.19990408 110.208358,8.19990408 C108.860597,8.19990408 107.89791,8.5463789 106.627164,9.50880895 L106.627164,1.6553797 Z" id="impath" fill="#08519C" sketch:type="MSShapeGroup"></path>
                <path d="M115.175821,52.7411671 L111.363582,52.7411671 L106.935224,40.4990568 L110.169851,33.9930296 L117.486269,33.9930296 L114.020597,40.8070344 L116.155885,45.782696 C117.92635,45.6167868 118.615167,44.7211632 118.718507,42.6549001 C118.949552,38.9976659 119.180597,38.1892246 120.451343,36.6878337 C121.799104,35.1094484 123.917015,34.26251 126.57403,34.26251 L128.69194,34.26251 L128.69194,41.6539728 C126.72806,41.69247 126.11194,42.3084253 125.95791,44.4257714 C125.611343,48.352486 123.955522,51.0472902 121.10597,52.4331894 C119.758209,53.0491447 118.641493,53.2416307 116.138507,53.2416307 L115.175821,53.2416307 L115.175821,52.7411671 Z M89.0677612,46.4647425 C87.7643279,50.3129588 84.0651865,53.1261391 79.7489552,53.1261391 C75.3850491,53.1261391 71.6833487,50.330904 70.3663336,46.4624544 C70.0567829,50.4163613 66.9433172,53.3956195 62.998209,53.3956195 C60.918806,53.3956195 59.2629851,52.5871783 57.5301493,50.7393125 C55.6432836,52.5871783 53.8719403,53.3956195 51.9080597,53.3956195 C49.4820896,53.3956195 47.0561194,52.0867146 45.8623881,50.1618545 C45.3081208,49.2910951 44.952851,48.2575629 44.7841791,46.962087 L44.7841791,46.962087 L44.7841791,53.0106475 L43.9755224,53.0106475 C40.5098507,53.0106475 37.2367164,51.1242846 35.6579104,48.16 C35.0967532,47.1448432 34.7395716,45.9257651 34.5734979,44.5027658 L24.4907463,44.5027658 C24.298209,43.8483133 24.2597015,43.5018385 24.2597015,42.9243805 C24.2597015,42.2699281 24.3367164,41.8464588 24.6062687,41.1535092 L28.9191045,41.1535092 C28.6880597,39.8446043 27.8408955,39.0746603 26.5701493,39.0746603 C24.8373134,39.0746603 23.6050746,40.73004 23.6050746,43.0783693 C23.6050746,45.5421902 24.7602985,47.1590727 26.5316418,47.1590727 C27.3402985,47.1590727 27.8023881,46.9280895 28.5340299,46.1196483 L32.5773134,50.9317986 C30.5364179,52.5101839 28.8035821,53.1261391 26.3776119,53.1261391 C21.6979933,53.1261391 17.9521413,50.2188978 16.8277612,46.0250687 L16.8277612,46.0250687 L16.8277612,52.7411671 L9.78089552,52.7411671 L9.78089552,42.1544365 C9.78089552,41.115012 9.31880597,40.537554 8.51014925,40.537554 C7.70149254,40.537554 7.16238806,41.1920064 7.16238806,42.1544365 L7.16238806,52.7411671 L0.115522388,52.7411671 L0.115522388,42.2699281 C0.115522388,37.4192806 3.81223881,33.6080576 8.47164179,33.6080576 C11.321194,33.6080576 14.0167164,35.032454 15.4414925,37.2267946 C16.0929954,38.2462664 16.5361297,39.599039 16.7249126,41.1318768 C17.7138839,36.7374042 21.6032734,33.5695604 26.3776119,33.5695604 C29.8206897,33.5695604 32.7682482,35.256973 34.4641791,37.8562573 L34.4641791,37.8562573 L34.4641791,27.0635332 L41.5110448,27.0635332 L41.5110448,34.26251 L44.6686567,34.26251 L44.6686567,41.69247 L41.5110448,41.69247 C41.3972128,44.423709 42.3302659,45.5850388 44.6786206,45.6184413 C44.6719678,45.4188343 44.6686567,45.2138455 44.6686567,45.0032294 L44.6686567,34.26251 L51.7155224,34.26251 L51.7155224,44.348777 C51.7155224,45.9271623 51.9850746,46.4661231 52.8322388,46.4661231 C53.679403,46.4661231 54.0259701,45.8501679 54.0259701,44.348777 L54.0259701,34.26251 L61.0728358,34.26251 L61.0728358,44.348777 C61.0728358,45.9271623 61.3423881,46.4661231 62.1895522,46.4661231 C62.998209,46.4661231 63.3447761,45.8501679 63.3447761,44.348777 L63.3447761,34.26251 L70.3916418,34.26251 L70.3916418,40.1116791 L70.3916418,40.1116791 C71.7289278,36.2677626 75.4168944,33.6080576 79.9029851,33.6080576 C84.2954068,33.6080576 88.0301025,36.6064888 89.1933994,40.7119289 C89.8294504,36.3490102 92.837444,33.6080576 97.2313433,33.6080576 C97.8474627,33.6080576 98.3095522,33.6465548 99.3492537,33.8005436 L99.3492537,41.3459952 C98.8101493,41.0380176 98.4635821,40.922526 98.04,40.922526 C96.7692537,40.922526 96.1146269,41.9234532 96.1146269,43.8483133 L96.1146269,52.7411671 L89.0677612,52.7411671 L89.0677612,46.4647425 L89.0677612,46.4647425 Z M79.7489552,40.537554 C81.2122388,40.537554 82.4444776,41.8079616 82.4444776,43.3863469 C82.4444776,44.926235 81.2122388,46.1966427 79.7104478,46.1966427 C78.2086567,46.1966427 76.9764179,44.926235 76.9764179,43.3478497 C76.9764179,41.7694644 78.1701493,40.537554 79.7489552,40.537554 Z M106.704179,27.0635332 L99.6573134,27.0635332 L99.6573134,52.7411671 L106.704179,52.7411671 L106.704179,27.0635332 Z" id="networks-copy" fill="#E7A42F" sketch:type="MSShapeGroup"></path>
            </g>
        </g>
    </g>
</svg>