<?xml version="1.0" standalone="no"?>
<!DOCTYPE svg PUBLIC "-//W3C//DTD SVG 1.1//EN" "http://www.w3.org/Graphics/SVG/1.1/DTD/svg11.dtd">
<svg width="100%" height="100%" viewBox="0 0 330 100" version="1.1" xmlns="http://www.w3.org/2000/svg" xmlns:xlink="http://www.w3.org/1999/xlink" xml:space="preserve" style="fill-rule:evenodd;clip-rule:evenodd;stroke-linecap:square;stroke-miterlimit:1.41421;">
    <g id="Imported-Layers">
        <path d="M144.385,42.5576L149.086,46.644L148.506,50.778L146.109,64.6953L145.89,65.858C145.709,67.2307 145.411,68.2173 145.411,68.2173C144.789,70.108 143.539,70.0573 143.539,70.0573L121.674,70.0573C120.617,70.0627 120.17,69.6413 120.17,69.6413L116.875,66.6307L116.876,66.6022C117.213,66.9927 117.767,67.2833 118.672,67.2833L139.205,67.2833C139.205,67.2833 140.604,67.4193 141.209,65.7127C141.358,65.2913 141.419,64.8453 141.488,64.4053C141.488,64.4053 141.864,62.1933 142.363,59.2533L129.474,59.2533L129.663,58.156L142.548,58.156C142.956,55.7553 143.419,53.0247 143.821,50.6553L130.928,50.6553L131.114,49.558L144.007,49.558C144.478,46.7847 144.825,44.7353 144.825,44.7327C144.97,43.8797 144.864,43.0654 144.385,42.5576Z" style="fill:white;"/>
        <path d="M173.465,42.3623C173.499,42.3692 173.515,42.378 173.515,42.378L178.421,46.6433L177.842,50.7773L175.444,64.6947L175.226,65.858C175.045,67.2307 174.747,68.2167 174.747,68.2167C174.126,70.1073 172.874,70.0573 172.874,70.0573L151.01,70.0573C149.953,70.0627 149.506,69.6407 149.506,69.6407L146.474,66.8711C146.815,67.1188 147.297,67.2833 147.978,67.2833L168.51,67.2833C168.51,67.2833 169.91,67.42 170.514,65.7127C170.664,65.2913 170.725,64.8453 170.794,64.406C170.794,64.406 172.172,56.2827 173.157,50.476L160.448,50.476L160.634,49.3787L173.343,49.3787C173.798,46.6967 174.131,44.736 174.131,44.7333C174.296,43.76 174.134,42.8369 173.465,42.3623ZM147.039,59.1073C147.134,58.7362 147.241,58.3697 147.361,58.01L158.996,58.01L158.811,59.1073L147.039,59.1073Z" style="fill:white;"/>
        <path d="M202.653,42.3636C202.685,42.3704 202.7,42.3787 202.7,42.3787L207.607,46.644L207.027,50.778L204.63,64.6953L204.411,65.858C204.23,67.2307 203.932,68.2173 203.932,68.2173C203.31,70.108 202.06,70.0573 202.06,70.0573L180.195,70.0573C179.138,70.0627 178.691,69.6413 178.691,69.6413L175.653,66.8665C175.994,67.1168 176.478,67.2833 177.163,67.2833L197.695,67.2833C197.695,67.2833 199.095,67.4193 199.699,65.7127C199.849,65.2913 199.91,64.8453 199.979,64.4053C199.979,64.4053 200.783,59.6673 201.601,54.842L190.532,54.842L189.801,59.2253L188.544,59.2253L190.212,49.2693L191.461,49.2693L190.715,53.7447L201.788,53.7447C202.573,49.118 203.316,44.7367 203.317,44.7327C203.481,43.7608 203.32,42.8389 202.653,42.3636Z" style="fill:white;"/>
        <path d="M232.3,42.5724L236.121,45.8673C237.275,46.8687 236.856,48.084 236.856,48.084L234.078,64.7473L233.474,67.8373C233.44,68.0147 233.403,68.186 233.342,68.3567C232.709,70.1353 231.507,70.0867 231.507,70.0867L209.643,70.0867C208.585,70.0927 208.139,69.6707 208.139,69.6707L205.105,66.8996C205.444,67.1362 205.919,67.292 206.581,67.292L227.114,67.292C227.114,67.292 228.513,67.428 229.118,65.7213C229.268,65.3 229.329,64.854 229.397,64.4147C229.397,64.4147 232.734,44.75 232.735,44.7413C232.879,43.8918 232.774,43.0806 232.3,42.5724ZM218.33,59.226L217.074,59.226L218.742,49.27L219.991,49.27L218.33,59.226Z" style="fill:white;"/>
        <path id="Fill-13" d="M230.867,42.038L210.742,42.038C210.124,42.038 209.522,41.9773 208.967,42.3027C208.459,42.6007 207.893,43.2307 207.667,44.5587C207.667,44.5587 204.388,64.1887 204.387,64.1893C204.297,64.7307 204.232,65.2807 204.384,65.8353C204.579,66.5433 205.129,67.292 206.581,67.292L227.114,67.292C227.114,67.292 228.513,67.428 229.118,65.7213C229.268,65.3 229.329,64.854 229.397,64.4147C229.397,64.4147 232.734,44.75 232.735,44.7413C232.973,43.3373 232.53,42.038 230.867,42.038M218.33,59.226L217.074,59.226L218.742,49.27L219.991,49.27L218.33,59.226" style="fill:none;stroke-width:1px;stroke:white;"/>
        <path id="Fill-12" d="M201.449,42.0293L181.324,42.0293C180.705,42.0293 180.103,41.9687 179.549,42.294C179.04,42.592 178.474,43.222 178.249,44.55C178.249,44.55 174.969,64.1793 174.969,64.1807C174.878,64.7213 174.813,65.272 174.965,65.826C175.161,66.5347 175.711,67.2833 177.163,67.2833L197.695,67.2833C197.695,67.2833 199.095,67.4193 199.699,65.7127C199.849,65.2913 199.91,64.8453 199.979,64.4053C199.979,64.4053 200.783,59.6673 201.601,54.842L190.532,54.842L189.801,59.2253L188.544,59.2253L190.212,49.2693L191.461,49.2693L190.715,53.7447L201.788,53.7447C202.573,49.118 203.316,44.7367 203.317,44.7327C203.554,43.3287 203.112,42.0293 201.449,42.0293" style="fill:none;stroke-width:1px;stroke-linecap:butt;stroke:white;"/>
        <path id="Fill-11" d="M172.264,42.03L152.139,42.03C151.52,42.03 150.918,41.9693 150.364,42.2947C149.855,42.5927 149.289,43.2227 149.064,44.5507C149.064,44.5507 147.776,52.2547 146.814,58.01L158.996,58.01L158.811,59.1073L146.632,59.1073C146.147,62.0073 145.784,64.1807 145.784,64.1807C145.693,64.7227 145.628,65.2727 145.78,65.8267C145.976,66.5353 146.526,67.2833 147.978,67.2833L168.51,67.2833C168.51,67.2833 169.91,67.42 170.514,65.7127C170.664,65.2913 170.725,64.8453 170.794,64.406C170.794,64.406 172.172,56.2827 173.157,50.476L160.448,50.476L160.634,49.3787L173.343,49.3787C173.798,46.6967 174.131,44.736 174.131,44.7333C174.369,43.3293 173.927,42.03 172.264,42.03" style="fill:none;stroke-width:1px;stroke-linecap:butt;stroke:white;"/>
        <path id="Fill-10" d="M142.958,42.0293L122.833,42.0293C122.215,42.0293 121.612,41.9687 121.058,42.294C120.549,42.592 119.984,43.222 119.758,44.55C119.758,44.55 116.478,64.1793 116.478,64.1807C116.388,64.7213 116.323,65.272 116.475,65.826C116.67,66.5347 117.22,67.2833 118.672,67.2833L139.205,67.2833C139.205,67.2833 140.604,67.4193 141.209,65.7127C141.358,65.2913 141.419,64.8453 141.488,64.4053C141.488,64.4053 141.864,62.1933 142.363,59.2533L129.474,59.2533L129.663,58.156L142.548,58.156C142.956,55.7553 143.419,53.0247 143.821,50.6553L130.928,50.6553L131.114,49.558L144.007,49.558C144.478,46.7847 144.825,44.7353 144.825,44.7327C145.064,43.3287 144.621,42.0293 142.958,42.0293" style="fill:none;stroke-width:1px;stroke-linecap:butt;stroke:white;"/>
        <path d="M127.317,30.496C127.35,30.5198 127.37,30.536 127.37,30.536L130.627,33.3793C131.366,34.1067 131.2,35.0527 131.2,35.0527L131.175,35.254L130.357,42.0293L122.833,42.0293C122.215,42.0293 121.612,41.9687 121.058,42.294C120.549,42.592 119.984,43.222 119.758,44.55C119.758,44.55 116.478,64.1793 116.478,64.1807C116.388,64.7213 116.323,65.272 116.475,65.826C116.492,65.8891 116.513,65.9524 116.536,66.0155L116.23,67.5687C115.778,70.0147 114.195,70.0593 114.195,70.0593L105.12,70.0593C103.99,70.0593 103.568,69.564 103.568,69.564L100.191,66.4733L100.158,66.4266C100.525,66.8266 101.151,67.1187 102.196,67.1187L109.311,67.1187C109.311,67.1187 109.465,67.126 109.605,67.1153C110.204,67.07 111.519,66.9347 111.904,64.2973L116.487,38.6087L125.109,38.6087C125.109,38.6087 126.979,38.9087 127.462,35.848L127.883,32.4867C127.883,32.4867 128.146,31.1816 127.317,30.496Z" style="fill:white;"/>
        <path id="Fill-6" d="M92.9699,36.268L93.6932,32.2467C94.1152,29.786 96.1057,30.086 96.1057,30.086L125.954,30.086C128.366,30.086 127.883,32.4867 127.883,32.4867L127.462,35.848C126.979,38.9087 125.109,38.6087 125.109,38.6087L116.487,38.6087L111.904,64.2973C111.519,66.9347 110.204,67.07 109.605,67.1153C109.465,67.126 109.311,67.1187 109.311,67.1187L102.196,67.1187C98.8792,67.1187 99.7841,64.178 99.7841,64.178L104.306,38.6087L94.5981,38.6087C94.5981,38.6087 92.5479,38.7287 92.9699,36.268" style="fill:none;stroke-width:1px;stroke-linecap:butt;stroke:white;"/>
    </g>
</svg>
