<?xml version="1.0" encoding="UTF-8" standalone="no"?>
<svg width="330px" height="100px" viewBox="0 0 330 100" version="1.1" xmlns="http://www.w3.org/2000/svg" xmlns:xlink="http://www.w3.org/1999/xlink" xmlns:sketch="http://www.bohemiancoding.com/sketch/ns">
    <!-- Generator: Sketch 3.0.4 (8053) - http://www.bohemiancoding.com/sketch -->
    <title>wavetronix</title>
    <desc>Created with Sketch.</desc>
    <defs></defs>
    <g id="Page-1" stroke="none" stroke-width="1" fill="none" fill-rule="evenodd" sketch:type="MSPage">
        <g id="wavetronix" sketch:type="MSArtboardGroup">
            <g id="Imported-Layers" sketch:type="MSLayerGroup" transform="translate(55.000000, 38.000000)">
                <path d="M0,0 L13.75,0 C13.75,0 2.75,2.8125 2.75,8.4375 C2.75,16.875 22,21.09375 22,21.09375 L22,22.5 L0,22.5 L0,0 L0,0 Z M16.5,0 C16.5,0 6.875,2.8125 6.875,7.03125 C6.875,12.65625 22,15.46875 22,15.46875 L22,0 L16.5,0 L16.5,0 Z" id="Fill-1" fill="#EBAB00" sketch:type="MSShapeGroup"></path>
                <path d="M53.2571111,22.5 L46.8758889,22.5 L43.1346667,5.4275 L39.3592222,22.5 L32.9792222,22.5 L27.5,0.0275 L32.4438889,0.0275 L36.2193333,16.08875 L40.0937778,0.0275 L46.2085556,0.0275 L50.0157778,16.08875 L53.757,0.0275 L58.7021111,0.0275 L53.2571111,22.5" id="Fill-2" fill="#000000" sketch:type="MSShapeGroup"></path>
                <path d="M76.8826667,22.5 L71.6711111,22.5 L70.4684444,18.11375 L63.019,18.11375 L61.8163333,22.5 L56.6047778,22.5 L63.3868889,0.0275 L70.0675556,0.0275 L76.8826667,22.5 L76.8826667,22.5 Z M64.1544444,13.89625 L69.2657778,13.89625 L66.7272222,4.4825 L64.1544444,13.89625 L64.1544444,13.89625 Z" id="Fill-3" fill="#000000" sketch:type="MSShapeGroup"></path>
                <path d="M87.978,22.5 L80.8292222,22.5 L74.5482222,0.0275 L79.6925556,0.0275 L84.403,17.91125 L89.1134444,0.0275 L94.259,0.0275 L87.978,22.5" id="Fill-4" fill="#000000" sketch:type="MSShapeGroup"></path>
                <path d="M96.2683333,22.5 L96.2683333,0.0275 L110.265222,0.0275 L110.265222,4.51625 L101.278222,4.51625 L101.278222,8.6325 L109.563667,8.6325 L109.563667,13.12 L101.278222,13.12 L101.278222,18.0125 L110.265222,18.0125 L110.265222,22.5 L96.2683333,22.5" id="Fill-5" fill="#000000" sketch:type="MSShapeGroup"></path>
                <path d="M123.164556,4.51625 L123.164556,22.5 L118.153444,22.5 L118.153444,4.51625 L112.174333,4.51625 L112.174333,0.0275 L129.144889,0.0275 L129.144889,4.51625 L123.164556,4.51625" id="Fill-6" fill="#000000" sketch:type="MSShapeGroup"></path>
                <path d="M168.273111,15.955 C168.273111,19.36125 165.935,22.83625 159.654,22.83625 C153.374222,22.83625 151.034889,19.36125 151.034889,15.955 L151.034889,6.575 C151.034889,3.16625 153.374222,-0.30875 159.654,-0.30875 C165.935,-0.30875 168.273111,3.16625 168.273111,6.575 L168.273111,15.955 L168.273111,15.955 Z M163.262,7.0125 C163.262,5.25875 162.159556,4.17875 159.654,4.17875 C157.149667,4.17875 156.046,5.25875 156.046,7.0125 L156.046,15.515 C156.046,17.27 157.149667,18.35 159.654,18.35 C162.159556,18.35 163.262,17.27 163.262,15.515 L163.262,7.0125 L163.262,7.0125 Z" id="Fill-7" fill="#000000" sketch:type="MSShapeGroup"></path>
                <path d="M176.229778,7.72125 L176.229778,22.5 L171.452111,22.5 L171.452111,0.0275 L177.598667,0.0275 L184.914889,15.515 L184.914889,0.0275 L189.692556,0.0275 L189.692556,22.5 L183.511778,22.5 L176.229778,7.72125" id="Fill-8" fill="#000000" sketch:type="MSShapeGroup"></path>
                <path d="M193.706333,0.0275 L198.717444,0.0275 L198.717444,22.5 L193.706333,22.5 L193.706333,0.0275 Z" id="Fill-9" fill="#000000" sketch:type="MSShapeGroup"></path>
                <path d="M213.250889,11.095 L220,22.5 L214.754222,22.5 L210.445889,15.07625 L206.136333,22.5 L200.891778,22.5 L207.605444,11.095 L201.125222,0.0275 L206.369778,0.0275 L210.445889,7.11375 L214.520778,0.0275 L219.766556,0.0275 L213.250889,11.095" id="Fill-10" fill="#000000" sketch:type="MSShapeGroup"></path>
                <path d="M144.482556,14.8075 C146.720444,13.8625 147.722667,11.9725 147.722667,9.1725 L147.722667,6.405 C147.722667,2.1875 145.719444,0.0275 140.306222,0.0275 L131.052778,0.0275 L131.052778,22.5 L136.063889,22.5 L136.063889,4.51625 L140.039778,4.51625 C142.077222,4.51625 142.711556,5.19 142.711556,6.8775 L142.711556,8.66625 C142.711556,10.3525 142.177444,11.12875 140.039778,11.12875 L138.989889,11.12875 L139.003333,15.515 L143.915444,22.5 L149.861556,22.5 L144.482556,14.8075" id="Fill-11" fill="#000000" sketch:type="MSShapeGroup"></path>
            </g>
        </g>
    </g>
</svg>