<?xml version="1.0" encoding="UTF-8" standalone="no"?>
<svg width="330px" height="100px" viewBox="0 0 330 100" version="1.1" xmlns="http://www.w3.org/2000/svg" xmlns:xlink="http://www.w3.org/1999/xlink" xmlns:sketch="http://www.bohemiancoding.com/sketch/ns">
    <!-- Generator: Sketch 3.3.2 (12043) - http://www.bohemiancoding.com/sketch -->
    <title>tesco_light</title>
    <desc>Created with Sketch.</desc>
    <defs></defs>
    <g id="Page-1" stroke="none" stroke-width="1" fill="none" fill-rule="evenodd" sketch:type="MSPage">
        <g id="tesco_light" sketch:type="MSArtboardGroup">
            <g id="Group-Copy" sketch:type="MSLayerGroup" transform="translate(90.500000, 30.000000)">
                <g id="Group" transform="translate(144.107151, 8.101558)" fill="#FFFFFF" sketch:type="MSShapeGroup">
                    <path d="M3.19202294,3.86622796 L2.7208674,3.86622796 L2.05879339,2.3159529 L1.02939669,2.3159529 L1.02939669,3.86622796 L0.610715826,3.86622796 L0.610715826,0.287129192 L2.02418244,0.287129192 C2.40713587,0.287129192 2.69183886,0.391742154 2.87605844,0.599855173 C3.06027803,0.809081096 3.15294606,1.03722638 3.15294606,1.28540394 C3.15294606,1.4768234 3.10047139,1.65933963 2.99775502,1.83295263 C2.89392216,2.00879144 2.72310037,2.13343667 2.48417315,2.20800123 L3.19202294,3.86622796 L3.19202294,3.86622796 Z M1.02939669,1.94869463 L1.96612536,1.94869463 C2.21286795,1.94869463 2.39708753,1.88414621 2.5187841,1.75504937 C2.64048068,1.62483962 2.7018872,1.46569437 2.7018872,1.27761362 C2.7018872,1.08953287 2.63713123,0.943742462 2.50873576,0.8391295 C2.37922381,0.734516538 2.21733388,0.682210058 2.02083299,0.682210058 L1.02939669,0.682210058 L1.02939669,1.94869463 L1.02939669,1.94869463 Z" id="Shape"></path>
                </g>
                <g id="Group" transform="translate(142.874186, 6.988654)" stroke="#FFFFFF" stroke-width="0.33" sketch:type="MSShapeGroup">
                    <path d="M2.96574518,6.13877762 C1.34907879,6.13877762 0.0383285531,4.8322285 0.0383285531,3.22074373 C0.0383285531,1.60925896 1.34907879,0.302709846 2.96574518,0.302709846 C4.58241158,0.302709846 5.89316181,1.60925896 5.89316181,3.22074373 C5.89316181,4.8322285 4.58241158,6.13877762 2.96574518,6.13877762 Z" id="Shape"></path>
                </g>
                <g id="Group" transform="translate(0.080932, 0.311231)" fill="#FFFFFF" sketch:type="MSShapeGroup">
                    <path d="M0.942087777,6.98458454 L1.67450018,2.91135646 C2.10099642,0.41956475 4.11289755,0.7233875 4.11289755,0.7233875 L34.3003464,0.7233875 C36.7398602,0.7233875 36.2519575,3.1550824 36.2519575,3.1550824 L35.8254612,6.55945527 C35.3375585,9.65889248 33.4462374,9.35506973 33.4462374,9.35506973 L24.7253941,9.35506973 L20.090876,35.3725358 C19.7012236,38.0435051 18.3714932,38.1803922 17.7663598,38.2260213 C17.6245665,38.2371503 17.468259,38.22936 17.468259,38.22936 L10.2725305,38.22936 C6.91861761,38.22936 7.83301663,35.2512293 7.83301663,35.2512293 L12.4072447,9.35506973 L2.58889919,9.35506973 C2.58889919,9.35506973 0.515591533,9.47637625 0.942087777,6.98458454" id="Shape"></path>
                </g>
                <g id="Group" transform="translate(24.643543, 12.553173)" fill="#FFFFFF" sketch:type="MSShapeGroup">
                    <path d="M26.9351359,0.398419577 L6.58277973,0.398419577 C5.95643315,0.398419577 5.34795029,0.336096962 4.78635968,0.666629404 C4.27166134,0.968226346 3.70002239,1.60592025 3.47114352,2.9503081 L0.155191042,22.8323353 C0.063639492,23.3809969 -0.00223296463,23.9374488 0.151841595,24.4994653 C0.349458965,25.2172882 0.905467158,25.9740629 2.3736414,25.9740629 L23.139096,25.9740629 C23.139096,25.9740629 24.5547956,26.1120629 25.1655114,24.3837233 C25.3162365,23.9574811 25.3787595,23.5056421 25.4490979,23.0604806 C25.4490979,23.0604806 25.7650624,21.1952538 26.2027235,18.6088652 L13.416768,18.6088652 L13.9995717,15.5984603 L26.7096064,15.6151539 C26.9920765,13.9513626 27.2901772,12.1907487 27.5715308,10.5280704 L15.1484321,10.5280704 L15.7557984,7.51766548 L28.0817632,7.51766548 C28.5138418,4.97022858 28.8231074,3.13838885 28.8242239,3.13616304 C29.0642676,1.71387192 28.6165582,0.398419577 26.9351359,0.398419577" id="Shape"></path>
                </g>
                <g id="Group" transform="translate(53.672084, 12.553173)" fill="#FFFFFF" sketch:type="MSShapeGroup">
                    <path d="M27.5447352,0.427355077 L7.19237907,0.427355077 C6.5660325,0.427355077 5.95754963,0.366145365 5.39595903,0.695564904 C4.88126068,0.997161846 4.30962174,1.63596865 4.08074286,2.9803565 L1.9761737,15.5984603 L14.1257343,15.5984603 L13.4190009,18.6088652 L1.47375666,18.6088652 L0.764790386,22.8612708 C0.673238836,23.4099324 0.607366379,23.9674972 0.761440939,24.5284008 C0.959058309,25.2462237 1.5150665,26.0041113 2.98324075,26.0041113 L23.7486953,26.0041113 C23.7486953,26.0041113 25.1643949,26.1421113 25.7751107,24.4137717 C25.9258358,23.9864166 25.9883588,23.5345776 26.0586972,23.0894161 L28.185596,10.5314091 L15.879728,10.5314091 L16.4033582,7.52100419 L28.6958285,7.51766548 L29.4338233,3.16509854 C29.673867,1.74392033 29.2261576,0.427355077 27.5447352,0.427355077" id="Shape"></path>
                </g>
                <g id="Group" transform="translate(83.817106, 12.553173)" fill="#FFFFFF" sketch:type="MSShapeGroup">
                    <path d="M26.9719798,0.427355077 L6.61962365,0.427355077 C5.99327707,0.427355077 5.38479421,0.366145365 4.8232036,0.695564904 C4.30850525,0.997161846 3.73686631,1.63596865 3.50798743,2.9803565 L0.192034958,22.8612708 C0.100483408,23.4099324 0.0346109518,23.9674972 0.188685511,24.5284008 C0.386302881,25.2462237 0.942311074,26.0041113 2.41048532,26.0041113 L23.1759399,26.0041113 C23.1759399,26.0041113 24.5916395,26.1421113 25.2023553,24.4137717 C25.3530804,23.9864166 25.4156034,23.5345776 25.4859418,23.0894161 L26.8781953,14.8717341 L15.6307524,14.8717341 L14.8146038,18.6088652 L11.7822379,18.6088652 L14.1960726,7.51766548 L17.2351375,7.51766548 L16.287244,11.8602163 L27.3884277,11.8602163 L28.8610678,3.16509854 C29.102228,1.74392033 28.6534021,0.427355077 26.9719798,0.427355077" id="Shape"></path>
                </g>
                <g id="Group" transform="translate(112.845646, 12.553173)" fill="#FFFFFF" sketch:type="MSShapeGroup">
                    <path d="M27.6139571,0.427355077 L7.26160098,0.427355077 C6.6352544,0.427355077 6.02677154,0.366145365 5.46518093,0.695564904 C4.95048259,0.997161846 4.37884364,1.63596865 4.14996477,2.9803565 L0.834012289,22.8612708 C0.74246074,23.4099324 0.676588283,23.9674972 0.830662842,24.5295137 C1.02828021,25.2462237 1.58428841,26.0041113 3.05246265,26.0041113 L23.8179172,26.0041113 C23.8179172,26.0041113 25.2336168,26.1421113 25.8443326,24.4137717 C25.9961742,23.9864166 26.0575808,23.5345776 26.1268027,23.0894161 L29.5030452,3.16509854 C29.7442054,1.74280742 29.2953795,0.427355077 27.6139571,0.427355077 L27.6139571,0.427355077 Z M15.6642469,18.6088652 L12.59727,18.6088652 L14.6571798,7.51766548 L17.7833303,7.51766548 L15.6642469,18.6088652 L15.6642469,18.6088652 Z" id="Shape"></path>
                </g>
            </g>
        </g>
    </g>
</svg>