<?xml version="1.0" encoding="UTF-8" standalone="no"?>
<svg width="330px" height="100px" viewBox="0 0 330 100" version="1.1" xmlns="http://www.w3.org/2000/svg" xmlns:xlink="http://www.w3.org/1999/xlink" xmlns:sketch="http://www.bohemiancoding.com/sketch/ns">
    <!-- Generator: Sketch 3.0.4 (8053) - http://www.bohemiancoding.com/sketch -->
    <title>tesco</title>
    <desc>Created with Sketch.</desc>
    <defs></defs>
    <g id="Page-1" stroke="none" stroke-width="1" fill="none" fill-rule="evenodd" sketch:type="MSPage">
        <g id="tesco" sketch:type="MSArtboardGroup">
            <g id="Imported-Layers" sketch:type="MSLayerGroup" transform="translate(93.000000, 30.000000)">
                <path d="M55.5056372,25.534 C53.5010233,28.7406667 53.3335814,33.2006667 53.2103442,36.63 L56.5062698,39.6406667 C56.5062698,39.6406667 56.9530047,40.0626667 58.0098977,40.0573333 L79.8744558,40.0573333 C79.8744558,40.0573333 81.1255814,40.1073333 81.7471256,38.2166667 C81.7471256,38.2166667 82.0451721,37.2306667 82.2260093,35.858 L82.4443535,34.6946667 L84.8421209,20.7773333 L85.4214698,16.6433333 L80.5147535,12.378 C80.5147535,12.378 80.1644651,12.1866667 79.3165395,12.8846667 L64.6412651,16.8913333 C64.6412651,16.8913333 58.8370605,20.2053333 55.5056372,25.534" id="Fill-1" fill="#010202" sketch:type="MSShapeGroup"></path>
                <path d="M82.3954605,36.6306667 L85.691386,39.6413333 C85.691386,39.6413333 86.1381209,40.0626667 87.195014,40.0573333 L109.059572,40.0573333 C109.059572,40.0573333 110.310028,40.108 110.932242,38.2173333 C110.932242,38.2173333 111.230288,37.2306667 111.411126,35.858 L111.63014,34.6953333 L114.027237,20.778 L114.606586,16.644 L109.69987,12.3786667 C109.69987,12.3786667 109.349581,12.1873333 108.501656,12.8853333 L93.8263814,16.8913333 C93.8263814,16.8913333 82.7229767,27.5 82.3954605,36.6306667" id="Fill-2" fill="#010202" sketch:type="MSShapeGroup"></path>
                <path d="M111.843126,36.66 L115.139051,39.6706667 C115.139051,39.6706667 115.585116,40.0926667 116.642679,40.0866667 L138.506567,40.0866667 C138.506567,40.0866667 139.7088,40.1353333 140.34173,38.3566667 C140.403349,38.186 140.440186,38.0146667 140.474344,37.8373333 L141.078474,34.7473333 L143.856,18.084 C143.856,18.084 144.274605,16.8686667 143.121265,15.8673333 L139.152893,12.446 C139.152893,12.446 138.689414,12.1306667 138.033042,12.896 L125.272633,17.3113333 L112.429172,34.0573333 C112.429172,34.0573333 111.555126,34.7313333 111.843126,36.66" id="Fill-3" fill="#010202" sketch:type="MSShapeGroup"></path>
                <path d="M23.8745302,36.6306667 L27.1704558,39.6413333 C27.1704558,39.6413333 27.6165209,40.0626667 28.6740837,40.0573333 L50.5386419,40.0573333 C50.5386419,40.0573333 51.7890977,40.108 52.4113116,38.2173333 C52.4113116,38.2173333 52.7093581,37.2306667 52.8901953,35.858 L53.1085395,34.6953333 L55.506307,20.778 L56.0856558,16.644 L51.1789395,12.3786667 C51.1789395,12.3786667 50.8286512,12.1873333 49.9807256,12.8853333 L35.3047814,16.8913333 C35.3047814,16.8913333 24.2027163,27.5 23.8745302,36.6306667" id="Fill-4" fill="#010202" sketch:type="MSShapeGroup"></path>
                <path d="M37.3100651,12.42 L38.1754047,5.254 L38.1995163,5.05266667 C38.1995163,5.05266667 38.3656186,4.10666667 37.6268651,3.37933333 L34.3704558,0.536 C34.3704558,0.536 33.9337674,0.183333333 33.7676651,0.356 L22.5517395,6.508 L7.7184,32.0166667 C7.7184,32.0166667 6.66284651,33.982 6.84368372,35.738 C6.84368372,35.738 6.768,35.888 7.19062326,36.4733333 L10.5675907,39.564 C10.5675907,39.564 10.9895442,40.0593333 12.1201116,40.0593333 L21.1947907,40.0593333 C21.1947907,40.0593333 22.7781209,40.0146667 23.230214,37.5686667 L23.8330047,34.5073333" id="Fill-5" fill="#010202" sketch:type="MSShapeGroup"></path>
                <path d="M-0.0301395349,6.268 L0.693209302,2.24666667 C1.11516279,-0.214 3.10571163,0.086 3.10571163,0.086 L32.9538977,0.086 C35.3657302,0.086 34.8834977,2.48666667 34.8834977,2.48666667 L34.4615442,5.848 C33.9793116,8.90866667 32.1093209,8.60866667 32.1093209,8.60866667 L23.4867349,8.60866667 L18.904186,34.2973333 C18.5190698,36.9346667 17.2043163,37.07 16.6048744,37.1153333 C16.464893,37.126 16.3108465,37.1186667 16.3108465,37.1186667 L9.19590698,37.1186667 C5.8792186,37.1186667 6.78407442,34.178 6.78407442,34.178 L11.3056744,8.60866667 L1.59806512,8.60866667 C1.59806512,8.60866667 -0.452093023,8.72866667 -0.0301395349,6.268" id="Fill-6" stroke="#000000" fill="#F9981D" sketch:type="MSShapeGroup"></path>
                <path d="M49.9579535,12.0293333 L29.8334512,12.0293333 C29.214586,12.0293333 28.6124651,11.9686667 28.0578977,12.294 C27.5488744,12.592 26.9835907,13.222 26.7578791,14.55 C26.7578791,14.55 23.4780279,34.1793333 23.4780279,34.1806667 C23.3876093,34.7213333 23.3226419,35.272 23.4746791,35.826 C23.6702512,36.5346667 24.2201302,37.2833333 25.672186,37.2833333 L46.2045767,37.2833333 C46.2045767,37.2833333 47.6043907,37.4193333 48.2085209,35.7126667 C48.3578791,35.2913333 48.4194977,34.8453333 48.4884837,34.4053333 C48.4884837,34.4053333 48.8635535,32.1933333 49.3625302,29.2533333 L36.4735256,29.2533333 L36.6630698,28.156 L49.5480558,28.156 C49.9559442,25.7553333 50.4187535,23.0246667 50.820614,20.6553333 L37.9282605,20.6553333 L38.113786,19.558 L51.0074791,19.558 C51.4776558,16.7846667 51.8252651,14.7353333 51.8252651,14.7326667 C52.0637023,13.3286667 51.620986,12.0293333 49.9579535,12.0293333" id="Fill-10" stroke="#000000" fill="#F9981D" sketch:type="MSShapeGroup"></path>
                <path d="M79.2636279,12.03 L59.1391256,12.03 C58.5202605,12.03 57.9181395,11.9693333 57.3635721,12.2946667 C56.8545488,12.5926667 56.2892651,13.2226667 56.0635535,14.5506667 C56.0635535,14.5506667 54.7762605,22.2546667 53.8144744,28.01 L65.9955349,28.01 L65.8106791,29.1073333 L53.6316279,29.1073333 C53.1467163,32.0073333 52.7837023,34.1806667 52.7837023,34.1806667 C52.6932837,34.7226667 52.6283163,35.2726667 52.7803535,35.8266667 C52.9759256,36.5353333 53.5258047,37.2833333 54.9778605,37.2833333 L75.5102512,37.2833333 C75.5102512,37.2833333 76.9100651,37.42 77.5141953,35.7126667 C77.6635535,35.2913333 77.7251721,34.8453333 77.7941581,34.406 C77.7941581,34.406 79.1718698,26.2826667 80.1570977,20.476 L67.4482605,20.476 L67.6344558,19.3786667 L80.343293,19.3786667 C80.7980651,16.6966667 81.1309395,14.736 81.1309395,14.7333333 C81.3693767,13.3293333 80.9266605,12.03 79.2636279,12.03" id="Fill-11" stroke="#000000" fill="#F9981D" sketch:type="MSShapeGroup"></path>
                <path d="M108.448744,12.0293333 L88.3242419,12.0293333 C87.7053767,12.0293333 87.1032558,11.9686667 86.5486884,12.294 C86.0396651,12.592 85.4743814,13.222 85.2486698,14.55 C85.2486698,14.55 81.9688186,34.1793333 81.9688186,34.1806667 C81.8784,34.7213333 81.8134326,35.272 81.9654698,35.826 C82.1610419,36.5346667 82.7109209,37.2833333 84.1629767,37.2833333 L104.695367,37.2833333 C104.695367,37.2833333 106.095181,37.4193333 106.699312,35.7126667 C106.84867,35.2913333 106.910288,34.8453333 106.979274,34.4053333 C106.979274,34.4053333 107.782995,29.6673333 108.601451,24.842 L97.5315349,24.842 L96.8008186,29.2253333 L95.5443349,29.2253333 L97.2120558,19.2693333 L98.4611721,19.2693333 L97.7150512,23.7446667 L108.787647,23.7446667 C109.572614,19.118 110.316056,14.7366667 110.316726,14.7326667 C110.554493,13.3286667 110.111777,12.0293333 108.448744,12.0293333" id="Fill-12" stroke="#000000" fill="#F9981D" sketch:type="MSShapeGroup"></path>
                <path d="M137.86694,12.038 L117.742437,12.038 C117.124242,12.038 116.522121,11.9773333 115.966884,12.3026667 C115.45853,12.6006667 114.892577,13.2306667 114.666865,14.5586667 C114.666865,14.5586667 111.387684,34.1886667 111.387014,34.1893333 C111.296595,34.7306667 111.231628,35.2806667 111.384335,35.8353333 C111.579237,36.5433333 112.129116,37.292 113.581172,37.292 L134.113563,37.292 C134.113563,37.292 135.513377,37.428 136.117507,35.7213333 C136.267535,35.3 136.329153,34.854 136.39747,34.4146667 C136.39747,34.4146667 139.733581,14.75 139.734921,14.7413333 C139.973358,13.3373333 139.529972,12.038 137.86694,12.038 M125.330233,29.226 L124.073749,29.226 L125.74214,19.27 L126.990586,19.27 L125.330233,29.226" id="Fill-13" stroke="#000000" stroke-linecap="square" fill="#F9981D" sketch:type="MSShapeGroup"></path>
            </g>
        </g>
    </g>
</svg>