<?xml version="1.0" standalone="no"?>
<!DOCTYPE svg PUBLIC "-//W3C//DTD SVG 1.1//EN" "http://www.w3.org/Graphics/SVG/1.1/DTD/svg11.dtd">
<svg width="100%" height="100%" viewBox="0 0 330 100" version="1.1" xmlns="http://www.w3.org/2000/svg" xmlns:xlink="http://www.w3.org/1999/xlink" xml:space="preserve" style="fill-rule:evenodd;clip-rule:evenodd;stroke-linejoin:round;stroke-miterlimit:1.41421;">
    <g id="Imported-Layers">
        <path id="Fill-1" d="M149.229,62.6677L141.43,39.9903C140.425,37.0984 139.993,36.8661 137.98,36.8661L137.98,35.6145C139.671,35.6548 141.318,35.6548 143.009,35.6919C144.7,35.6548 146.35,35.6548 148.043,35.6145L148.043,36.8661C146.925,37.021 145.059,36.8661 145.059,38.1968C145.025,38.6242 145.129,39.1694 145.381,39.9903L151.559,58.7532L157.597,39.9903C157.78,39.2532 157.814,38.7032 157.744,38.3129C157.641,37.021 155.765,37.021 154.943,36.8661L154.943,35.6145C156.234,35.6548 157.561,35.6548 158.857,35.6919C160.152,35.6548 161.477,35.6548 162.772,35.6145L162.772,36.8661C160.654,37.4145 160.406,37.6855 159.712,39.9903L151.629,62.6677L149.229,62.6677" style="fill:white;"/>
        <path id="Fill-2" d="M167.722,39.6C167.722,37.0645 167.076,36.9484 164.269,36.9484L164.269,35.6161C165.96,35.6548 167.647,35.6548 169.337,35.6903C171.021,35.6548 172.707,35.6548 174.405,35.6161L174.405,36.9484C171.74,36.9484 170.952,37.021 170.952,39.6L170.952,58.7548C170.952,61.2952 171.604,61.4161 174.405,61.4161L174.405,62.7435C172.707,62.7016 171.021,62.7016 169.337,62.6677C167.647,62.7016 165.96,62.7016 164.269,62.7435L164.269,61.4161C167.076,61.4161 167.722,61.2952 167.722,58.7548L167.722,39.6" style="fill:white;"/>
        <path id="Fill-3" d="M197.356,54.5758L197.356,61.4887C195.571,62.4274 188.456,63.0548 186.737,63.0548C177.043,63.0548 173.814,58.0516 173.814,48.9839C173.814,39.6016 177.923,35.1065 187.583,35.1065C191.253,35.1065 193.807,35.6161 197.356,36.6339L197.356,42.9242L195.207,42.9242L195.082,41.7903C194.524,37.4145 192.529,36.5548 187.583,36.5548C180.201,36.5548 177.962,41.829 177.962,48.321C177.962,55.4323 179.279,61.7306 187.789,61.7306C193.931,61.7306 194.567,60.0468 195.082,54.5758L197.356,54.5758" style="fill:white;"/>
        <path id="Fill-4" d="M198.708,49.0645C198.708,39.1694 201.818,35.1065 211.672,35.1065C221.533,35.1065 224.64,39.1694 224.64,49.0645C224.64,58.8726 221.984,63.0548 211.672,63.0548C201.852,63.0548 198.708,58.9081 198.708,49.0645M202.576,49.0645C202.576,55.629 204.061,61.6871 211.672,61.6871C219.29,61.6871 220.775,55.629 220.775,49.0645C220.775,42.4919 219.29,36.4742 211.672,36.4742C204.061,36.4742 202.576,42.4919 202.576,49.0645" style="fill:white;"/>
        <path id="Fill-5" d="M226.648,39.6C226.648,37.0645 225.848,36.9484 223.154,36.9484L223.154,35.6161C224.264,35.6548 225.324,35.6548 226.421,35.6903C227.483,35.6548 228.58,35.6548 229.646,35.6161L245.869,57.9742L245.869,39.6C245.869,37.0984 245.183,36.9484 242.38,36.9484L242.38,35.6161C243.82,35.6548 245.26,35.6548 246.7,35.6903C248.141,35.6548 249.587,35.6548 251.026,35.6161L251.026,36.9484C248.294,36.9484 247.767,37.0984 247.767,39.6L247.767,62.6677L245.294,62.6677L228.546,39.8387L228.546,58.7548C228.546,61.2581 229.222,61.4161 232.033,61.4161L232.033,62.7435C230.557,62.7016 229.072,62.7016 227.599,62.6677C226.124,62.7016 224.638,62.7016 223.154,62.7435L223.154,61.4161C225.965,61.4161 226.648,61.2581 226.648,58.7548L226.648,39.6" style="fill:white;"/>
        <path id="Fill-6" d="M111.695,26.7758L119.914,26.7758L110.314,42.8145C110.178,43.3871 109.576,43.6258 109.161,43.6258L97.8746,43.6258C97.4619,43.6258 96.7014,43.4258 96.4943,42.8145L86.7512,26.7758L94.7661,26.7758L101.952,38.35C102.307,39.0339 103.328,39.0339 103.495,39.0194C103.63,39.0032 104.407,39.0323 104.789,38.35L111.695,26.7758" style="fill:white;"/>
        <path id="Fill-7" d="M111.695,26.7758L119.914,26.7758L110.314,42.8145C110.178,43.3871 109.576,43.6258 109.161,43.6258L97.8746,43.6258C97.4619,43.6258 96.7014,43.4258 96.4943,42.8145L86.7512,26.7758L94.7661,26.7758L101.952,38.35C102.307,39.0339 103.328,39.0339 103.495,39.0194C103.63,39.0032 104.407,39.0323 104.789,38.35L111.695,26.7758" style="fill:white;"/>
        <path id="Fill-8" d="M79.916,52.6855L75.8058,45.7097L94.7887,45.7177C95.3648,45.5516 95.8729,46.0565 96.0816,46.4081L101.726,55.9839C101.933,56.3306 102.134,57.0774 101.698,57.5597L92.3857,73.8419L88.3791,67.0435L95.0201,55.1613C95.4505,54.5177 94.936,53.65 94.8373,53.5177C94.7596,53.4113 94.3987,52.679 93.6026,52.6968L79.916,52.6855" style="fill:white;"/>
        <path id="Fill-9" d="M126.811,52.7258L130.918,45.75L111.938,45.7629C111.359,45.5919 110.848,46.0952 110.639,46.4468L104.998,56.0226C104.791,56.3742 104.593,57.1177 105.022,57.6032L114.338,73.8839L118.34,67.0839L111.704,55.2016C111.273,54.5581 111.781,53.6935 111.883,53.5629C111.969,53.4516 112.327,52.721 113.119,52.7403L126.811,52.7258" style="fill:white;"/>
    </g>
</svg>
