<?xml version="1.0" standalone="no"?>
<!DOCTYPE svg PUBLIC "-//W3C//DTD SVG 1.1//EN" "http://www.w3.org/Graphics/SVG/1.1/DTD/svg11.dtd">
<svg width="100%" height="100%" viewBox="0 0 330 100" version="1.1" xmlns="http://www.w3.org/2000/svg" xmlns:xlink="http://www.w3.org/1999/xlink" xml:space="preserve" style="fill-rule:evenodd;clip-rule:evenodd;stroke-linejoin:round;stroke-miterlimit:1.41421;">
    <g id="Imported-Layers">
        <path id="Fill-1" d="M55,38L68.75,38C68.75,38 57.75,40.8125 57.75,46.4375C57.75,54.875 77,59.0938 77,59.0938L77,60.5L55,60.5L55,38ZM71.5,38C71.5,38 61.875,40.8125 61.875,45.0312C61.875,50.6562 77,53.4688 77,53.4688L77,38L71.5,38Z" style="fill:white;"/>
        <path id="Fill-2" d="M108.257,60.5L101.876,60.5L98.1347,43.4275L94.3592,60.5L87.9792,60.5L82.5,38.0275L87.4439,38.0275L91.2193,54.0888L95.0938,38.0275L101.209,38.0275L105.016,54.0888L108.757,38.0275L113.702,38.0275L108.257,60.5" style="fill:white;"/>
        <path id="Fill-3" d="M131.883,60.5L126.671,60.5L125.468,56.1137L118.019,56.1137L116.816,60.5L111.605,60.5L118.387,38.0275L125.068,38.0275L131.883,60.5ZM119.154,51.8963L124.266,51.8963L121.727,42.4825L119.154,51.8963Z" style="fill:white;"/>
        <path id="Fill-4" d="M142.978,60.5L135.829,60.5L129.548,38.0275L134.693,38.0275L139.403,55.9112L144.113,38.0275L149.259,38.0275L142.978,60.5" style="fill:white;"/>
        <path id="Fill-5" d="M151.268,60.5L151.268,38.0275L165.265,38.0275L165.265,42.5162L156.278,42.5162L156.278,46.6325L164.564,46.6325L164.564,51.12L156.278,51.12L156.278,56.0125L165.265,56.0125L165.265,60.5L151.268,60.5" style="fill:white;"/>
        <path id="Fill-6" d="M178.165,42.5162L178.165,60.5L173.153,60.5L173.153,42.5162L167.174,42.5162L167.174,38.0275L184.145,38.0275L184.145,42.5162L178.165,42.5162" style="fill:white;"/>
        <path id="Fill-7" d="M223.273,53.955C223.273,57.3612 220.935,60.8362 214.654,60.8362C208.374,60.8362 206.035,57.3612 206.035,53.955L206.035,44.575C206.035,41.1662 208.374,37.6912 214.654,37.6912C220.935,37.6912 223.273,41.1662 223.273,44.575L223.273,53.955ZM218.262,45.0125C218.262,43.2587 217.16,42.1788 214.654,42.1788C212.15,42.1788 211.046,43.2587 211.046,45.0125L211.046,53.515C211.046,55.27 212.15,56.35 214.654,56.35C217.16,56.35 218.262,55.27 218.262,53.515L218.262,45.0125Z" style="fill:white;"/>
        <path id="Fill-8" d="M231.23,45.7212L231.23,60.5L226.452,60.5L226.452,38.0275L232.599,38.0275L239.915,53.515L239.915,38.0275L244.693,38.0275L244.693,60.5L238.512,60.5L231.23,45.7212" style="fill:white;"/>
        <rect id="Fill-9" x="248.706" y="38.0275" width="5.01111" height="22.4725" style="fill:white;"/>
        <path id="Fill-10" d="M268.251,49.095L275,60.5L269.754,60.5L265.446,53.0763L261.136,60.5L255.892,60.5L262.605,49.095L256.125,38.0275L261.37,38.0275L265.446,45.1137L269.521,38.0275L274.767,38.0275L268.251,49.095" style="fill:white;"/>
        <path id="Fill-11" d="M199.483,52.8075C201.72,51.8625 202.723,49.9725 202.723,47.1725L202.723,44.405C202.723,40.1875 200.719,38.0275 195.306,38.0275L186.053,38.0275L186.053,60.5L191.064,60.5L191.064,42.5162L195.04,42.5162C197.077,42.5162 197.712,43.19 197.712,44.8775L197.712,46.6662C197.712,48.3525 197.177,49.1287 195.04,49.1287L193.99,49.1287L194.003,53.515L198.915,60.5L204.862,60.5L199.483,52.8075" style="fill:white;"/>
    </g>
</svg>
